<svg width="85" height="12" viewBox="0 0 85 12" fill="none" xmlns="http://www.w3.org/2000/svg">
<path d="M-7.51019e-06 11.456V0.144001H7.98399V1.968H1.99999V4.944H7.19999V6.736H1.99999V9.632H7.98399V11.456H-7.51019e-06ZM14.0986 11.584C13.3413 11.584 12.6266 11.472 11.9546 11.248C11.2933 11.0133 10.7386 10.6453 10.2906 10.144C9.84262 9.632 9.54928 8.96533 9.41062 8.144H11.4426C11.5706 8.56 11.7733 8.88533 12.0506 9.12C12.3386 9.35467 12.6746 9.52 13.0586 9.616C13.4426 9.70133 13.832 9.744 14.2266 9.744C14.5786 9.744 14.9093 9.70133 15.2186 9.616C15.5386 9.52 15.8 9.36533 16.0026 9.152C16.216 8.93867 16.3226 8.656 16.3226 8.304C16.3226 8.03733 16.264 7.824 16.1466 7.664C16.04 7.49333 15.8853 7.35467 15.6826 7.248C15.4906 7.13067 15.256 7.04 14.9786 6.976C14.712 6.89067 14.424 6.816 14.1146 6.752C13.8053 6.688 13.5013 6.61867 13.2026 6.544C12.904 6.46933 12.6213 6.37333 12.3546 6.256C12.0133 6.13867 11.6826 6.00533 11.3626 5.856C11.0533 5.696 10.7813 5.504 10.5466 5.28C10.3226 5.056 10.1413 4.77867 10.0026 4.448C9.86395 4.11733 9.79462 3.72267 9.79462 3.264C9.79462 2.74133 9.87995 2.29333 10.0506 1.92C10.232 1.536 10.4666 1.22133 10.7546 0.976001C11.0533 0.730667 11.384 0.538667 11.7466 0.400001C12.12 0.261334 12.504 0.16 12.8986 0.0960007C13.304 0.0320009 13.688 9.53674e-07 14.0506 9.53674e-07C14.7546 9.53674e-07 15.3946 0.117334 15.9706 0.352001C16.5573 0.586667 17.0373 0.949334 17.4106 1.44C17.784 1.93067 17.9973 2.56 18.0506 3.328H16.1146C16.072 2.96533 15.944 2.67733 15.7306 2.464C15.5173 2.24 15.2506 2.08 14.9306 1.984C14.6106 1.87733 14.264 1.824 13.8906 1.824C13.6346 1.824 13.3786 1.84533 13.1226 1.888C12.8773 1.93067 12.6533 2.00533 12.4506 2.112C12.2586 2.21867 12.0986 2.36267 11.9706 2.544C11.8533 2.71467 11.7946 2.93333 11.7946 3.2C11.7946 3.43467 11.8533 3.64267 11.9706 3.824C12.088 3.99467 12.248 4.13867 12.4506 4.256C12.664 4.37333 12.9146 4.48 13.2026 4.576C13.576 4.72533 13.9813 4.83733 14.4186 4.912C14.8666 4.98667 15.288 5.088 15.6826 5.216C16.0666 5.32267 16.4186 5.456 16.7386 5.616C17.0693 5.76533 17.352 5.952 17.5866 6.176C17.8213 6.38933 18.0026 6.656 18.1306 6.976C18.2693 7.28533 18.3386 7.65867 18.3386 8.096C18.3386 8.736 18.2213 9.28 17.9866 9.728C17.7626 10.1653 17.448 10.5227 17.0426 10.8C16.648 11.0773 16.1946 11.28 15.6826 11.408C15.1813 11.5253 14.6533 11.584 14.0986 11.584ZM22.682 11.456V1.968H19.146V0.144001H28.202V1.968H24.666V11.456H22.682ZM27.5031 11.456L31.8391 0.144001H34.2231L38.5431 11.456H36.3831L35.6311 9.36H30.4151L29.6471 11.456H27.5031ZM31.0551 7.552H34.9751L33.0231 2.16L31.0551 7.552ZM39.875 11.456V0.144001H42.019L47.475 8.384V0.144001H49.475V11.456H47.379L41.875 3.264V11.456H39.875ZM56.864 11.584C55.7013 11.584 54.7093 11.3387 53.888 10.848C53.0773 10.3573 52.4533 9.67467 52.016 8.8C51.5893 7.92533 51.376 6.928 51.376 5.808C51.376 4.66667 51.5947 3.664 52.032 2.8C52.4693 1.92533 53.0987 1.24267 53.92 0.752001C54.7413 0.250668 55.7333 9.53674e-07 56.896 9.53674e-07C58.0587 9.53674e-07 59.0453 0.245334 59.856 0.736001C60.6773 1.22667 61.3067 1.90933 61.744 2.784C62.1813 3.648 62.4 4.64533 62.4 5.776C62.4 6.896 62.1813 7.89333 61.744 8.768C61.3173 9.64267 60.688 10.3307 59.856 10.832C59.0347 11.3333 58.0373 11.584 56.864 11.584ZM56.896 9.728C57.7067 9.728 58.368 9.54133 58.88 9.168C59.392 8.79467 59.7653 8.30933 60 7.712C60.2453 7.11467 60.368 6.48 60.368 5.808C60.368 5.296 60.2987 4.80533 60.16 4.336C60.032 3.86667 59.824 3.44533 59.536 3.072C59.2587 2.69867 58.9013 2.40533 58.464 2.192C58.0267 1.968 57.504 1.856 56.896 1.856C56.096 1.856 55.4347 2.04267 54.912 2.416C54.4 2.78933 54.0213 3.27467 53.776 3.872C53.5307 4.46933 53.408 5.11467 53.408 5.808C53.408 6.49067 53.5307 7.13067 53.776 7.728C54.0213 8.32533 54.4 8.81067 54.912 9.184C55.4347 9.54667 56.096 9.728 56.896 9.728ZM64.2969 11.456V0.144001H68.7609C69.3369 0.144001 69.8809 0.202668 70.3929 0.320001C70.9049 0.426667 71.3582 0.618667 71.7529 0.896001C72.1475 1.16267 72.4569 1.53067 72.6809 2C72.9049 2.46933 73.0169 3.05067 73.0169 3.744C73.0169 4.32 72.9155 4.82667 72.7129 5.264C72.5102 5.70133 72.2275 6.06933 71.8649 6.368C71.5129 6.66667 71.0915 6.896 70.6009 7.056L73.0809 11.456H70.8409L68.6169 7.376H66.2969V11.456H64.2969ZM66.2969 5.6H68.4889C68.8515 5.6 69.1822 5.57333 69.4809 5.52C69.7902 5.456 70.0569 5.35467 70.2809 5.216C70.5155 5.07733 70.6915 4.89067 70.8089 4.656C70.9369 4.41067 71.0062 4.10133 71.0169 3.728C71.0169 3.28 70.9209 2.928 70.7289 2.672C70.5475 2.416 70.2809 2.23467 69.9289 2.128C69.5875 2.02133 69.1769 1.968 68.6969 1.968H66.2969V5.6ZM73.9562 11.456L78.2922 0.144001H80.6762L84.9962 11.456H82.8362L82.0842 9.36H76.8682L76.1002 11.456H73.9562ZM77.5082 7.552H81.4282L79.4762 2.16L77.5082 7.552Z" fill="white"/>
</svg>
