<svg width="344" height="304" viewBox="0 0 344 304" fill="none" xmlns="http://www.w3.org/2000/svg">
<path d="M227.576 130.497C226.91 130.393 226.232 130.336 225.585 130.161C225.342 130.096 225.033 129.78 224.992 129.538C224.656 127.566 224.435 125.597 223 123.976C222.585 123.507 222.569 122.593 222.561 121.88C222.549 120.727 222.09 120.044 220.932 119.937C220.282 119.876 219.739 119.529 220.123 118.974C220.75 118.07 221.104 116.792 220.44 116.359C219.558 115.783 219.949 115.097 219.662 114.523C219.426 114.048 219.186 113.575 218.957 113.097C218.491 112.124 218.277 111.236 219.429 110.507C219.966 110.167 220.538 109.695 219.282 109.323C218.849 109.194 218.442 108.303 218.382 107.723C218.24 106.346 218.534 104.879 217.168 103.904C218.286 102.747 215.926 101.805 216.968 100.653C215.495 100.125 215.979 98.8424 215.834 97.7875C215.798 97.5227 215.577 97.1041 215.383 97.0685C213.603 96.7412 215.796 95.2271 214.59 94.5832C213.885 94.2066 213.476 93.2764 212.933 92.5948C213.79 91.9567 212.838 91.4533 212.732 90.9373C212.482 89.725 211.772 88.5914 211.621 87.3795C211.498 86.3921 209.653 87.2993 210.262 85.8787C210.711 84.8288 209.142 84.366 209.294 84.0584C209.927 82.7822 208.248 82.6312 208.337 81.6119C208.405 80.8279 208.045 79.9767 207.758 79.1995C207.428 78.3099 206.773 77.5043 206.608 76.5985C206.336 75.1013 205.186 74.1391 204.459 73.008C202.629 70.1608 200.483 67.5472 200.273 63.9765C199.002 62.9445 199.26 61.2666 198.585 59.9874C197.954 58.7942 197.19 57.6656 196.637 56.44C196.386 55.8816 196.204 55.4853 195.552 55.5274C194.083 55.6222 192.79 55.1289 191.717 54.1907C190.598 53.2127 188.806 54.397 187.901 52.9055C187.127 53.6363 186.257 53.5192 185.244 53.5131C182.972 53.4994 180.804 53.4114 178.593 52.6684C177.219 52.2063 175.496 52.1926 174.086 52.567C172.208 53.0661 170.457 53.1276 168.611 52.6763C166.664 52.2002 164.74 52.9544 162.793 52.8717C162.083 52.8416 162.193 53.2397 162.486 53.6583C162.548 53.747 162.675 53.8526 162.659 53.9256C162.278 55.6589 163.87 56.8891 163.866 58.4546C163.862 60.1843 165.062 61.4279 165.393 62.8515C166.009 65.5078 167.723 67.8487 167.608 70.6919C167.592 71.0875 167.79 71.4989 167.921 71.8927C169.24 75.8659 170.566 79.8366 171.89 83.8083C172.186 84.698 173.438 85.1266 173.103 86.3206L173.113 86.3116C172.79 86.2796 172.244 86.3486 172.177 86.2006C171.023 83.6495 168.891 81.4761 168.767 78.5635C168.729 77.6746 166.85 78.0684 167.926 76.7332C168.713 75.7563 166.654 75.9489 166.793 74.8444C166.89 74.0729 166.431 73.2318 166.221 72.4212C166.012 71.6092 165.86 70.7763 165.579 69.9898C165.297 69.1979 164.845 68.4674 164.542 67.6812C164.168 66.7082 163.956 65.6634 163.499 64.7364C163.318 64.3706 162.664 64.2387 162.225 64.0002C162.308 64.3451 162.432 64.6864 162.463 65.036C162.501 65.4665 162.567 65.9382 162.437 66.3313C162.082 67.4078 161.152 68.5493 161.341 69.4839C161.562 70.5733 161.938 71.4823 161.261 72.4848L161.907 75.0607C161.789 75.3862 161.717 75.743 161.526 76.0171C161.475 76.0897 160.939 75.9895 160.83 75.8296C159.827 74.3582 160.019 72.5951 159.779 70.9527C159.638 69.9808 159.853 68.9762 158.513 68.7796C157.085 68.5702 157.434 67.1613 156.864 66.3748C156.741 66.2049 156.546 66.087 156.384 65.9454C156.237 66.1387 156.01 66.3123 155.958 66.5282C155.686 67.65 155.538 68.8066 155.202 69.9071C154.074 73.6015 152.926 77.2916 151.691 80.9511C151.365 81.9166 150.77 82.8228 150.149 83.6431C149.866 84.0167 149.191 84.3265 148.748 84.2661C148.445 84.2248 148.239 83.4929 147.985 83.0725C146.884 81.2479 146.159 79.165 146.058 77.1594C145.965 75.2784 145.809 73.41 145.678 71.5316C145.569 69.951 145.109 68.4009 145.744 66.6702C146.237 65.3299 145.64 63.6046 145.595 62.0484C145.56 60.8562 145.616 59.6605 145.656 58.4672C145.689 57.4989 145.31 56.6175 145.613 55.5371C145.99 54.1979 144.688 53.359 143.359 53.9788C141.152 55.0078 138.916 55.5694 136.465 55.1735C136.029 55.103 135.488 55.3768 135.062 55.6133C134.425 55.9682 133.966 58.0996 133.163 55.7322C131.645 55.9869 130.134 56.3477 128.605 56.4608C127.514 56.5417 126.591 57.7439 125.364 56.9423C125.316 56.9107 124.926 57.358 124.728 57.6081C124.114 58.3842 123.814 59.5581 122.385 59.243C122.157 59.193 121.692 59.6116 121.543 59.9149C120.579 61.8738 119.876 64.0002 118.66 65.7798C118.058 66.6612 119.623 68.2666 117.621 68.4139C117.401 69.6585 117.253 70.9265 116.435 71.9717C115.715 72.8915 114.806 73.7226 114.322 74.7535C113.661 76.1576 112.815 77.4364 112.515 79.1032C112.176 80.9863 110.975 82.7326 110.052 84.4874C109.226 86.0561 108.299 87.5742 107.356 89.0765C106.921 89.7689 108.228 90.5123 107.101 91.2492C106.473 91.6595 106.177 92.6279 105.821 93.3871C105.512 94.0475 105.234 94.751 105.115 95.4642C104.99 96.2216 103.459 96.2604 104.235 97.5227C104.558 98.0476 102.581 98.3965 103.611 99.497C103.624 99.5107 103.513 99.6785 103.432 99.7367C101.992 100.778 102.096 102.467 101.538 103.897C101.177 104.822 101.35 106.387 99.7837 106.638C99.6615 107.695 99.678 108.761 98.6741 109.53C97.7676 110.224 98.7938 111.755 97.58 112.398C96.8086 115.249 94.5335 117.406 93.9166 120.331C93.8088 120.841 93.4681 121.356 93.521 121.838C93.6866 123.348 93.0636 124.494 92.1315 125.576C91.7528 126.016 91.2351 127.718 91.1858 128.735C91.0658 131.202 89.6566 133.284 89.1626 135.642C89.0789 136.043 88.4357 136.388 87.9833 136.636C87.2108 137.059 84.9713 138.353 84.8193 138.799C84.4183 139.973 83.9239 140.552 82.5769 139.9C82.2672 139.75 81.5597 140.163 81.6089 141.084C81.6876 142.557 80.9104 143.432 79.2486 143.318C78.903 143.295 78.5228 143.776 78.1588 144.024C77.7237 142.802 77.4586 142.704 77.3461 144.13C77.3306 144.326 76.9598 144.687 76.8923 144.657C75.6405 144.105 74.9632 145.091 74.2054 145.697C73.7333 146.074 72.4028 146.017 73.1764 147.253C72.328 147.658 71.4495 148.013 70.64 148.486C69.9146 148.909 69.2502 149.445 68.5898 149.969C68.3634 150.149 68.2614 150.479 68.0498 150.686C66.6402 152.065 66.5903 152.153 68.2589 152.964C69.3282 153.484 69.9426 154.007 70.0267 155.312C70.0745 156.058 70.7316 156.858 71.3011 157.456C72.4746 158.688 70.8035 159.591 71.0521 160.682C70.8092 160.643 70.4363 160.692 70.3432 160.553C68.8596 158.342 66.315 158.581 64.1883 157.872C64.0586 157.829 63.8297 158.085 63.6468 158.202C63.3436 155.999 61.2736 156.491 59.9719 155.852C59.0481 155.398 58.0043 155.139 56.985 154.952C56.5229 154.867 55.9207 155.057 55.5064 155.318C54.9118 155.694 54.3976 156.574 54.0792 155.113C54.0663 155.053 53.1821 154.991 53.0161 155.19C52.195 156.176 51.1283 156.06 50.0457 156.069C47.8007 156.088 45.5439 156.046 43.4427 155.218C42.6285 154.898 41.8269 154.173 41.3631 153.42C40.6024 152.186 39.8629 150.976 38.7638 150.008C37.2307 148.659 37.1218 146.601 36.2972 144.899C35.8962 144.071 35.6073 142.898 35.4625 141.972C35.3731 141.401 35.8556 140.835 36.1811 140.81C36.4513 141.057 36.7819 141.263 36.9799 141.558C37.6299 142.525 38.2339 143.523 38.8511 144.512C39.1275 144.955 39.2899 145.615 39.6844 145.809C40.6107 146.264 40.7652 146.608 41.058 147.897C42.1021 147.893 41.8995 149.019 42.4611 149.444C43.368 150.13 44.6043 150.47 44.8659 151.825C44.8846 151.921 45.2346 152.015 45.4264 152.007C47.7292 151.913 50.2153 152.745 52.1652 150.806C52.7078 150.266 52.9722 150.484 53.4095 150.903C54.6125 152.054 55.9013 151.803 57.2361 151.082C57.9569 150.692 58.7434 150.418 59.5163 150.134C59.7268 150.057 60.0358 150.059 60.2309 150.159C62.2804 151.209 62.3221 151.263 63.5006 150.113C64.6457 148.995 65.8512 148.142 67.5453 148.304C67.7013 148.318 68.0023 148.273 68.002 148.256C67.9984 146.589 69.6314 146.663 70.3946 145.876C71.2095 145.035 71.6461 143.937 73.0603 144.024C73.1354 144.028 73.2626 143.901 73.2924 143.811C73.4552 143.317 73.5339 142.78 73.7872 142.342C73.8486 142.235 74.6254 142.626 74.786 142.477C75.1493 142.141 75.2884 141.576 75.6049 141.172C75.864 140.841 76.2416 140.6 76.5779 140.334C78.8092 138.564 81.0383 136.792 83.2779 135.032C85.2081 133.516 86.3737 131.762 86.8957 129.16C87.6754 125.277 89.4788 121.654 91.949 118.455C92.1463 118.2 92.4078 117.995 92.632 117.76C93.4911 116.858 92.096 115.195 93.9036 114.481C95.3092 113.925 95.3225 112.247 95.8539 110.992C96.348 109.825 96.975 108.77 97.1169 107.432C97.2074 106.579 98.115 105.843 98.3791 104.971C99.35 101.766 101.299 98.9894 102.278 95.7879C102.706 94.3895 103.545 93.1083 103.901 91.6991C104.218 90.4411 104.89 89.4149 105.441 88.3018C105.741 87.6946 106.29 85.0637 106.296 84.1989C106.297 84.1112 106.104 83.9822 106.127 83.942C106.227 83.7598 106.339 83.5202 106.508 83.4505C107.404 83.0811 106.642 82.0291 107.062 81.7725C109.477 80.3012 108.791 77.4238 110.065 75.4617C109.293 74.0248 111.463 73.4873 111.085 72.1039C110.968 71.6749 111.557 71.0433 111.427 70.629C111.196 69.8938 110.887 69.3305 111.969 69.1537C111.876 68.6794 111.552 68.0172 111.747 67.7772C112 67.466 112.733 67.5911 113.129 67.3298C113.334 67.194 113.333 66.6231 113.294 66.2634C113.18 65.2304 113.278 64.1029 114.163 63.6329C114.958 63.2108 114.918 62.7149 114.937 62.0966C114.955 61.4958 115.453 59.7873 115.703 59.4057C116.455 58.2599 117.282 57.1482 117.897 55.9312C118.358 55.0189 119.014 54.388 119.903 54.1121C120.817 53.8278 121.632 53.3352 122.466 53.0183C123.548 52.6066 124.956 52.8193 126.166 53.0568C126.973 53.2149 127.85 54.1178 127.015 52.3856C127.01 52.3759 127.35 52.1075 127.512 52.1247C128.883 52.2695 130.268 52.3709 131.611 52.659C132.268 52.7999 132.602 52.8085 132.765 52.1093C132.802 51.9512 132.998 51.8301 133.12 51.6918C134.315 53.0913 135.497 51.3925 136.671 51.6756C138.625 52.147 140.579 51.6195 142.541 51.7065C144.412 51.7895 146.371 51.5276 148.166 50.9969C149.059 50.7332 149.844 51.8556 150.743 50.818C151.172 50.3228 152.304 50.3149 153.12 50.3041C154.323 50.2883 155.532 50.5643 156.734 50.5348C157.851 50.5071 158.886 50.9243 160.013 50.8873C161.262 50.8463 162.497 50.9882 163.782 51.3361C165.178 51.7137 166.856 51.0867 168.404 50.8503C168.808 50.7885 169.174 50.4665 169.577 50.4108C170.927 50.2254 172.468 49.6545 173.583 50.1044C174.489 50.4698 175.287 49.776 175.815 50.2484C177.013 51.3199 178.108 49.3045 179.417 50.3677C180.21 51.012 181.782 51.4169 182.662 51.0673C183.992 50.5388 185.211 50.8431 186.467 50.7687C187.654 50.6983 189.046 51.201 189.999 50.7367C191.255 50.1241 191.575 51.5175 192.08 51.3806C193.027 51.1244 193.545 51.2121 194.175 51.9544C194.636 52.4981 195.318 53.0456 195.988 53.189C198.931 53.8196 199.998 56.1867 200.882 58.5477C201.267 59.5746 201.556 60.521 202.387 61.2608C202.916 61.7319 202.986 62.1893 202.646 62.9452C202.447 63.3883 203.018 64.215 203.316 64.8345C203.997 66.2527 204.73 67.646 205.428 69.0567C205.611 69.4257 205.635 69.9571 205.917 70.1788C207.192 71.1823 207.467 72.6979 207.867 74.078C208.127 74.9741 208.325 75.6823 209.253 76.0322C209.392 76.0843 209.537 76.4709 209.48 76.6341C209.056 77.8536 209.925 78.6045 210.419 79.5168C210.859 80.3274 212.46 80.8552 211.173 82.1656C211.655 82.9615 212.026 83.8604 212.644 84.5323C214 86.0069 214.695 87.9917 216.359 89.2342C216.582 89.4009 216.39 90.3743 216.504 90.3969C217.442 90.5827 217.253 91.2754 217.363 91.8985C217.453 92.4026 217.957 92.8916 217.911 93.3508C217.76 94.871 218.671 95.9978 219.252 97.2083C219.749 98.2431 220.684 99.0055 220.492 100.391C220.43 100.846 221.679 101.73 221.569 101.888C221.088 102.577 221.08 103.125 221.804 103.398C223.136 103.9 223.381 104.967 223.551 106.147C223.628 106.681 223.906 106.916 224.769 107.259C225.725 107.64 226.611 107.959 225.627 109.278C225.369 109.624 225.526 110.646 225.866 111.009C226.986 112.207 225.564 114.125 227.145 115.11C225.693 116.507 227.625 117.521 227.691 118.8C227.762 120.165 228.215 121.645 228.414 123.094C228.485 123.608 228.4 124.338 228.703 124.593C230.009 125.691 229.085 126.084 228.183 126.365C225.906 127.072 228.805 127.367 228.283 127.911L228.302 127.892C227.917 128.187 227.446 128.419 227.169 128.793C226.789 129.309 227.009 129.711 227.66 129.825C227.638 130.046 227.615 130.267 227.592 130.487L227.579 130.499L227.576 130.497ZM148.151 77.6815C147.995 77.7131 147.839 77.7443 147.684 77.776C148.175 79.0335 148.665 80.2918 149.18 81.5397C149.182 81.5447 149.587 81.4581 149.713 81.327C150.836 80.1517 150.817 78.4583 151.498 77.0566C152.025 75.9715 151.89 74.4067 152.44 73.0902C152.983 71.7924 153.455 70.4005 153.59 69.0143C153.74 67.4851 154.699 66.4391 155.281 65.1726C155.323 65.0813 155.278 64.9537 155.304 64.8503C156.028 61.9068 156.803 58.9824 158.049 56.2007C158.389 55.444 158.579 54.6118 158.763 53.7969C158.907 53.1545 158.404 52.511 157.948 52.8498C157.224 53.3881 156.836 52.7898 156.308 52.7819C154.506 52.7543 152.597 52.1707 150.933 53.0945C150.211 53.4951 149.777 53.7398 149.089 53.2433C148.945 53.1387 148.666 53.2206 148.449 53.2138C146.969 53.1689 146.762 53.433 148.232 54.1056C148.043 55.352 147.975 56.6337 147.627 57.8345C147.332 58.8517 148.29 59.6608 147.723 60.7858C147.23 61.7656 147.385 63.0692 147.239 64.2276C147.217 64.3979 147.019 64.6577 147.07 64.7087C149.207 66.8433 147.874 69.4178 147.978 71.8018C148.065 73.7603 148.095 75.7214 148.15 77.6815H148.151ZM158.86 57.0239C159.427 57.3393 159.989 57.6818 160.581 57.9595C160.72 58.0245 160.961 57.8715 161.156 57.8187C161.001 57.4497 160.931 57.0002 160.674 56.7285C160.136 56.1612 160.876 54.9737 160.087 54.8745C158.962 54.7333 159.754 56.1303 159.158 56.5726C159.077 56.633 159.038 56.7497 158.86 57.0239Z" fill="black"/>
<path d="M263.302 155.713C263.221 155.625 263.169 155.511 263.182 155.392C263.195 155.276 263.204 155.159 263.203 155.042C263.203 154.985 263.199 154.929 263.195 154.872C263.194 154.851 263.194 154.847 263.194 154.841C263.193 154.837 263.192 154.838 263.19 154.827C263.171 154.743 263.147 154.663 263.125 154.58C263.125 154.578 263.125 154.58 263.125 154.578C262.748 154.415 262.369 154.255 261.99 154.095C261.957 154.097 261.924 154.093 261.891 154.097C261.842 154.101 261.757 154.119 261.858 154.099C261.814 154.108 261.771 154.113 261.728 154.121C261.653 154.136 261.578 154.152 261.504 154.171C261.353 154.209 261.208 154.26 261.063 154.314C261.063 154.318 261.067 154.32 261.067 154.323C261.088 154.389 261.091 154.455 261.076 154.521C261.073 154.587 261.054 154.648 261.018 154.705C260.993 154.742 260.975 154.782 260.956 154.822C260.912 154.943 260.878 155.068 260.846 155.193C260.815 155.32 260.726 155.42 260.619 155.489C260.507 155.561 260.366 155.567 260.24 155.539C259.933 156.778 259.681 158.033 259.387 159.29C259.056 160.706 259.152 162.241 258.226 163.685C257.665 164.558 257.527 165.652 257.095 166.614C256.718 167.456 256.337 168.404 255.702 169.028C254.877 169.84 255.955 171.016 254.551 171.707C254.213 171.874 254.98 173.246 253.876 173.859C252.382 174.688 254.369 175.066 253.717 175.983C253.595 176.156 253.485 176.337 253.381 176.521C254.341 176.384 255.302 176.25 256.262 176.121C256.404 175.477 256.528 174.835 256.572 174.194C256.636 173.238 257.045 172.242 257.299 171.264C259.192 170.951 258.451 169.504 258.746 168.54C259.077 167.456 259.023 166.276 260.235 165.502C260.397 165.398 260.584 164.979 260.525 164.848C260.128 163.972 260.517 163.247 261.003 162.322C261.751 160.898 262.69 159.437 262.536 157.788C262.503 157.424 262.883 156.957 263.029 156.529C263.122 156.258 263.212 155.985 263.303 155.714L263.302 155.713Z" fill="black"/>
<path d="M71.5951 279.689C69.5169 279.662 67.3183 280.627 65.5666 282.201C64.3824 283.266 62.1011 283.015 61.2305 281.705C60.9172 281.233 60.6704 280.717 60.393 280.221C60.9226 280.182 61.6718 280.35 61.9409 280.065C62.7942 279.162 64.1668 279.528 65.0399 278.382C65.9374 277.204 66.8605 275.633 68.8223 275.671C69.7087 275.688 68.2309 274.42 69.3412 274.458C69.846 274.475 70.3368 274.769 70.8474 274.841C70.971 274.858 71.2713 274.497 71.2796 274.301C71.3173 273.419 71.3587 272.581 72.202 272.015C73.111 271.405 71.7693 270.975 72.0406 270.401C72.2602 269.936 72.3766 269.371 72.7165 269.024C73.3449 268.383 73.554 269.259 73.9051 269.511C74.4807 269.923 74.8996 270.304 75.357 269.313C75.5927 268.802 76.252 268.103 76.6789 268.13C78.6748 268.258 79.5077 267.012 80.3424 265.558C80.5289 265.234 81.2238 265.051 81.675 265.067C82.2733 265.088 82.8622 265.368 83.4554 265.537C83.5284 265.14 83.4683 264.546 83.7026 264.388C84.1611 264.079 85.0098 264.578 85.2688 263.646C85.3317 263.419 85.6781 263.135 85.9087 263.121C86.355 263.094 86.8749 263.414 87.2508 263.277C87.955 263.021 87.6474 262.484 87.3445 262.038C88.1095 261.8 88.8676 261.533 89.6444 261.344C89.8618 261.29 90.1345 261.464 90.3821 261.534C90.3336 261.243 90.3577 260.737 90.2251 260.692C88.6409 260.153 89.73 260.129 90.3027 259.669C91.1819 258.962 91.6939 259.878 92.276 260.007C93.9328 260.374 94.7153 260.643 95.6053 260.648C96.8298 260.655 98.2746 259.386 99.2246 261.201C100.432 260.457 101.548 261.039 102.721 261.36C103.446 261.559 103.465 260.896 103.557 260.337C103.69 259.525 103.722 258.51 104.222 257.985C105.233 256.923 106.457 256.01 107.727 255.262C109.286 254.343 109.347 254.438 111.147 255.19C111.34 255.271 111.605 255.596 111.646 255.564C113.446 254.157 114.406 256.478 115.847 256.492C117.154 256.505 115.873 257.521 116.351 257.668C116.951 257.852 117.611 257.835 118.243 257.922C118.337 257.935 118.41 258.061 118.506 258.106C119.631 258.624 118.832 260.327 120.341 260.818C121.205 261.099 122.47 262.398 121.656 263.361C120.731 264.456 124.55 264.397 121.94 265.294C122.337 266.259 121.769 266.976 121.338 267.745C120.898 268.531 121.623 268.285 121.917 268.303C122.246 268.322 122.583 268.211 122.917 268.157C122.813 268.447 122.795 268.874 122.59 269C121.994 269.366 121.747 270.754 120.628 269.758C120.582 270.49 118.569 269.771 119.532 271.245C118.801 271.587 117.967 271.804 117.363 272.301C116.383 273.105 116.161 271.989 115.576 271.805C114.896 271.591 113.806 271.312 113.466 271.644C112.53 272.563 110.948 271.829 110.239 273.099C110.166 273.231 109.657 273.226 109.408 273.132C108.854 272.922 107.521 273.101 107.179 273.519C106.722 274.078 106.494 274.546 105.449 274.055C104.204 273.469 102.809 273.727 101.662 274.979C101.016 275.684 99.8642 276.1 98.8754 276.272C97.5682 276.499 96.4335 276.898 95.4505 277.781C95.2309 277.979 94.8335 278.222 94.6295 278.146C94.0172 277.918 93.4599 277.542 92.8811 277.223C92.8002 277.852 92.7269 278.482 92.631 279.108C92.6173 279.198 92.4945 279.271 92.4222 279.352C92.3112 279.193 92.1891 279.039 92.0917 278.872C91.8894 278.524 92.5124 277.78 91.5689 277.785C91.6598 278.49 89.7979 277.535 90.5467 279.108C90.8316 279.707 89.4314 280.293 88.721 279.59C87.8174 278.695 87.1042 278.495 85.9149 279.183C85.0374 279.69 84.1607 279.932 84.1952 281.162C84.1999 281.329 83.888 281.505 83.7227 281.677C82.9632 280.901 82.3146 281.316 81.8432 281.967C80.8368 283.358 79.2853 283.504 78.0827 282.95C77.2046 282.547 76.5955 283.375 76.145 282.987C74.8195 281.848 73.9104 281.202 73.6492 283.734C73.5741 284.461 73.2429 284.003 73.061 283.552C72.7988 282.902 72.5012 282.085 71.5196 282.792C71.409 282.553 71.1582 282.271 71.2164 282.085C71.34 281.692 71.5944 281.327 71.8509 280.994C72.1595 280.592 72.526 280.235 72.8674 279.859C72.3464 279.789 71.8254 279.719 71.5965 279.688L71.5951 279.689Z" fill="black"/>
<path d="M264.277 302.147C263.63 302.087 262.958 302.108 262.347 301.925C262.108 301.853 261.785 301.143 261.878 301.028C262.614 300.117 262.079 300.102 261.31 299.988C260.403 299.853 259.949 299.62 260.302 298.318C260.743 296.695 260.157 294.975 258.359 294.226C257.548 293.888 257.273 293.726 258.021 293.059C258.414 292.708 258.858 292.405 257.91 292.026C257.432 291.835 257.266 290.965 256.808 290.584C256.55 290.37 255.901 290.674 255.573 290.489C254.666 289.978 254.964 289.003 254.797 288.179C254.634 287.374 254.179 286.378 253.041 287.093C251.951 287.779 251.549 287.147 251.129 286.348C251.81 286.054 250.535 284.317 252.379 284.755C253.02 284.907 252.949 284.346 252.345 284.196C250.716 283.791 252.871 282.637 251.861 281.964C251.092 281.451 250.234 282.915 249.706 281.714C249.52 281.294 249.265 280.636 249.45 280.366C250.355 279.041 249.325 278.305 248.499 278.332C246.724 278.388 248.151 276.908 247.445 276.49C247.326 276.42 247.647 275.608 247.764 275.139C246.145 275.925 246.582 273.187 245.092 273.599C244.356 273.803 243.342 273.64 243.151 272.834C242.772 271.235 240.827 270.686 240.867 268.743C240.918 266.246 239.432 265.229 236.793 265.5C235.301 265.652 234.855 265.31 235.274 264.037C235.496 263.362 235.747 263.333 234.924 262.794C233.792 262.053 233.824 260.529 234.701 259.518C235.168 258.979 235.696 258.701 235.686 257.798C235.682 257.339 235.984 256.464 237.098 256.397C238.092 256.338 238.378 255.017 237.546 254.699C236.739 254.391 236.881 253.548 236.373 253.393C235.563 253.146 234.878 251.961 233.781 252.991C233.532 253.225 232.535 253.126 232.366 252.867C232.139 252.515 232.182 251.662 232.464 251.384C232.86 250.995 233.54 251.133 233.034 250.137C232.752 249.581 232.182 248.129 233.83 247.855C233.854 247.851 233.8 247.369 233.779 247.11C233.729 246.477 233.388 245.597 233.679 245.254C234.767 243.973 234.218 242.811 233.57 241.741C232.943 240.704 233.471 240.754 234.209 240.78C234.534 240.792 234.86 240.78 235.186 240.781C236.839 240.786 235.997 241.369 235.491 241.966C235.234 242.27 235.058 242.697 234.994 243.092C234.951 243.354 235.132 243.884 235.283 243.912C237.433 244.303 238.809 246.156 240.831 246.797C241.604 247.041 242.227 247.88 243.119 246.952C243.201 246.866 244.071 247.537 244.575 247.857C243.804 249.067 245.133 249.647 245.381 250.55C245.961 252.661 246.933 254.539 248.384 256.205C249.269 257.221 249.323 258.312 248.105 259.262C247.609 259.648 247.804 259.956 248.416 259.964C249.69 259.98 251.073 259.78 251.431 261.548C251.448 261.633 251.572 261.722 251.667 261.762C252.717 262.216 254.026 262.418 254.752 263.178C255.462 263.92 255.564 265.235 255.962 266.287C256.09 266.624 256.175 268.148 256.126 268.842C256.103 269.167 256.304 269.507 256.403 269.84C256.658 269.71 256.969 269.632 257.153 269.436C257.36 269.216 257.419 268.864 257.601 268.612C257.988 268.075 258.533 267.96 258.782 268.626C259.066 269.388 260.087 270.029 259.224 271.098C258.954 271.433 258.991 272.214 259.175 272.676C259.635 273.829 260.174 274.972 260.846 276.013C261.369 276.821 262.383 277.371 262.721 278.218C262.986 278.883 262.662 279.865 262.397 280.637C262.14 281.382 264.018 280.914 263.068 282.124C262.755 282.524 263.854 282.624 264.537 282.715C266.114 282.925 266.665 284.506 265.578 285.807C264.597 286.982 264.455 287.965 265.099 289.29C265.359 289.826 265.273 290.552 265.265 291.19C265.252 292.232 265.872 293.061 266.736 292.883C268.297 292.562 266.697 294.747 268.057 294.325C268.49 295.232 267.619 295.258 267.196 295.574C267.035 295.695 266.821 295.746 266.632 295.829C266.864 295.977 267.198 296.075 267.305 296.288C267.465 296.603 267.527 297.001 267.518 297.361C267.505 297.833 267.328 298.303 267.331 298.772C267.333 299.033 266.963 301.76 266.659 301.976C266.421 302.144 266.036 302.103 265.716 302.154C265.056 301.059 264.991 301.059 264.277 302.146L264.277 302.147Z" fill="black"/>
<path d="M1.60625 158.895C3.92449 159.197 5.85001 160.531 7.06518 162.24C8.2128 163.853 10.065 164.339 11.2313 165.885C12.3243 167.334 14.367 167.762 16.1308 168.456C17.7384 169.088 19.5931 169.442 20.8798 170.826C21.0573 171.017 21.4633 171.026 21.7698 171.057C21.9681 171.078 22.1995 171.023 22.3712 170.925C22.4298 170.891 22.4133 170.566 22.3256 170.467C21.9656 170.063 21.6293 169.565 21.1676 169.336C19.0879 168.304 17.5203 166.738 16.2221 164.86C14.3925 164.846 13.8155 163.101 12.6409 162.196C11.2471 161.123 11.218 160.023 11.7595 158.659C12.0782 157.857 12.3297 158.343 12.7821 158.315C14.2193 158.224 14.86 159.472 15.4269 160.148C16.253 161.134 17.4908 161.598 18.1634 162.688C18.2619 162.847 18.7606 162.972 18.8716 162.878C19.5798 162.271 20.0099 163.013 20.5679 163.105C21.6598 163.285 20.9121 164.104 21.1043 164.296C21.7565 164.949 22.5595 165.637 23.4215 165.858C25.771 166.458 27.4845 168.348 29.9688 168.781C30.9321 168.95 31.7549 170.018 32.9729 169.37C33.0983 169.303 33.4476 169.429 33.5435 169.569C34.7342 171.3 36.2153 169.923 37.4948 169.827C38.4337 169.756 39.287 168.93 39.799 170.43C39.8328 170.529 40.901 170.122 41.4245 170.238C42.5445 170.487 43.7334 171.737 44.5282 169.771C44.558 169.697 45.0995 169.777 45.3776 169.864C46.9726 170.364 48.6013 171.146 49.7895 169.152C51.8275 169.806 53.3366 166.939 55.4996 168.278C55.5528 168.311 55.8391 167.97 56.0152 167.802C57.2994 166.576 58.9935 166.381 60.6075 166.071C62.1626 165.773 63.7895 166.484 65.3758 165.727C65.7236 165.561 66.4678 166.138 66.9834 166.448C67.2435 166.605 67.4009 166.933 67.6046 167.184C67.3283 167.29 67.0502 167.392 66.7757 167.503C66.393 167.656 65.9683 167.753 65.6403 167.985C64.8545 168.541 64.3173 169.66 63.0192 168.785C62.7824 168.626 61.9905 169.035 61.624 169.368C60.4469 170.438 59.3402 171.007 57.5484 170.699C56.5772 170.533 55.3724 171.847 54.242 172.433C53.6988 172.715 53.0883 173.017 52.5008 173.032C51.3083 173.064 50.1434 172.898 49.2128 173.966C49.0461 174.158 48.3171 173.847 47.8453 173.79C47.5539 173.755 47.2022 173.651 46.9715 173.766C44.6022 174.947 44.6119 174.916 42.7439 174.849C42.1575 174.827 41.5395 175.402 40.9664 175.352C38.6449 175.151 36.3328 174.83 34.0261 174.492C33.8511 174.466 33.8112 173.892 33.5963 173.695C32.9672 173.115 32.2335 172.88 31.7836 173.841C31.3697 174.725 30.9321 174.649 30.3486 174.097C30.0334 173.799 29.7252 173.489 29.4453 173.158C28.8287 172.429 28.1834 172.324 27.5877 173.127C26.7102 174.31 25.5224 174.574 24.1577 174.426C23.9421 174.403 23.7136 174.357 23.5085 174.402C21.3997 174.863 19.4508 174.857 17.7578 173.149C17.2368 172.624 16.1175 173.878 15.377 172.613C15.0051 171.977 13.9797 171.476 12.9355 172.101C12.7487 172.213 12.0911 171.605 11.6894 171.281C10.7732 170.542 10.0999 169.245 8.54481 170.069C8.41654 170.137 7.88188 169.698 7.7184 169.395C6.79067 167.679 5.83851 166.012 3.7646 165.453C2.92957 163.453 0.948717 162.261 0.102552 160.277C-0.275438 159.391 0.428444 158.769 1.60661 158.894L1.60625 158.895Z" fill="black"/>
<path d="M169.659 19.3295C169.874 19.7769 169.353 20.8774 169.898 21.8899C170.278 22.5974 170.321 23.4885 170.505 24.2995C170.714 25.2178 170.908 26.1391 171.117 27.0575C171.298 27.8577 171.874 28.826 171.608 29.4232C170.682 31.505 170.867 33.672 171.021 35.753C171.204 38.2157 170.016 39.8427 168.196 40.7758C166.098 41.8508 164.067 43.3168 161.558 43.412C160.527 43.4512 159.262 43.7652 158.511 43.2985C157.224 42.4979 155.868 41.6263 155.217 40.0087C153.602 35.9927 152.25 31.9354 152.178 27.5501C152.169 27.0277 152.153 26.4517 151.936 25.9982C151.587 25.2685 150.534 24.3433 150.718 23.9883C151.347 22.7767 150.305 22.4595 149.917 21.7994C148.789 19.8811 148.424 17.2894 149.191 14.9464C149.696 13.4046 149.341 11.8466 149.566 10.2926C149.867 8.21189 150.157 5.94431 151.032 4.41511C151.39 3.78812 151.713 3.1403 152.08 2.51906C152.228 2.2697 152.518 1.84141 152.631 1.87483C154.025 2.28731 154.636 1.09549 155.561 0.536048C156.947 -0.302931 159.593 -0.100643 160.995 0.751271C162.401 1.60606 163.881 2.33941 164.247 4.1636C166.05 5.13409 166.334 7.13506 167.364 8.62186C168.226 9.8647 167.116 11.2168 168.107 12.3461C169.017 13.383 168.729 14.7703 168.762 16.0476C168.779 16.7152 168.333 17.6404 169.536 17.8672C169.618 17.8826 169.593 18.469 169.659 19.3299V19.3295ZM153.929 29.2342C153.781 29.2819 153.632 29.3294 153.483 29.3772C153.627 29.8209 153.774 30.2639 153.916 30.7084C154.423 32.2972 155.009 33.8448 155.385 35.4961C155.791 37.2736 156.857 38.9153 157.732 40.5641C158.148 41.3471 158.849 41.9072 159.866 41.6938C161.706 41.3076 163.594 41.0607 165.366 40.4686C166.523 40.082 167.664 39.3346 168.501 38.4529C168.851 38.0846 168.58 36.8651 168.268 36.1788C167.224 33.8793 167.871 31.5071 167.812 29.1734C167.779 27.8904 167.62 26.7021 167.276 25.4395C166.62 23.0347 165.183 20.7078 166.043 18.0152C166.137 17.7181 165.845 17.1503 165.561 16.9078C164.79 16.2488 164.874 15.4293 164.807 14.554C164.712 13.3094 164.36 12.0866 164.193 10.8442C164.12 10.3016 162.496 10.8514 163.441 9.70589C163.105 6.92307 161.4 4.88652 159.681 2.8647C159.568 2.73212 159.241 2.61966 159.112 2.68721C157.537 3.51433 155.064 2.83273 154.51 5.41398C154.451 5.68921 154.138 6.01582 153.868 6.11355C153.501 6.2465 152.835 6.03019 152.7 6.23212C152.366 6.73335 151.911 7.61581 152.123 7.94026C153.007 9.28945 152.144 10.7917 152.622 12.0299C153.113 13.3025 152.547 14.6068 153.112 15.7918C153.78 17.1945 152.878 18.6124 153.236 20.0988C153.542 21.3711 152.796 22.8773 153.019 24.1945C153.23 25.4406 153.013 26.7409 153.511 27.9414C153.685 28.3582 153.792 28.8023 153.929 29.2342Z" fill="black"/>
<path d="M260.939 156.632C261.238 156.423 261.778 156.006 261.802 156.034C262.683 157.057 263.557 155.491 264.408 156.044C265.111 156.502 265.828 156.939 266.528 157.401C268.236 158.527 270.404 158.241 272.158 159.241C272.39 159.374 272.934 159.42 273.004 159.306C273.701 158.164 274.961 158.68 275.911 158.299C276.96 157.879 278.537 158.185 279.182 157.508C279.916 156.737 280.85 156.992 281.491 156.391C281.78 156.121 282.211 155.857 282.58 155.853C283.145 155.846 283.713 156.067 284.279 156.191C284.189 155.802 283.424 155.281 284.516 155.134C285.095 155.056 285.849 154.604 286.196 154.829C286.879 155.271 287.192 154.775 287.568 154.556C288.145 154.222 288.588 153.635 289.182 153.358C289.73 153.103 290.429 153.195 291.016 152.998C294.063 151.975 296.767 150.372 298.903 147.946C299.359 147.428 299.522 146.641 299.775 145.96C299.994 145.37 300.418 145.504 300.581 144.29C300.618 144.015 300.743 143.129 301.092 142.839C301.789 142.256 302.113 141.387 303.427 141.394C303.681 141.396 305.258 142.445 303.812 144.574C302.918 145.888 303.464 147.633 302.415 148.897C302.361 148.962 302.669 149.519 301.94 149.641C301.537 149.709 301.259 149.759 300.982 149.999C299.989 150.857 300.653 152.846 298.475 153.103C297.128 153.261 295.944 154.565 294.617 155.209C293.23 155.882 292.027 157.219 290.211 156.629C290.063 156.581 289.784 156.736 289.65 156.878C288.476 158.116 287.226 159.133 285.348 158.585C285.216 160.008 283.23 159.28 283.139 160.237C283.004 161.661 281.885 159.831 281.645 160.912C281.325 162.356 280.608 161.317 280.022 160.988C279.868 160.902 279.516 160.913 279.419 161.024C278.088 162.527 276.213 162.43 274.486 162.874C273.605 163.101 272.934 164.093 272.126 164.681C271.871 164.867 271.341 165.037 271.181 164.91C270.89 164.678 270.627 164.211 270.64 163.853C270.653 163.477 271.111 163.132 271.18 162.739C271.291 162.109 271.328 161.488 270.338 161.377C269.521 161.285 268.726 160.943 267.941 160.66C267.447 160.482 266.841 160.328 266.537 159.957C265.056 158.151 262.746 157.789 260.917 156.606L260.939 156.633V156.632Z" fill="black"/>
<path d="M260.917 156.606C260.55 157.432 260.256 158.327 259.179 157.17C258.861 156.828 258.226 156.558 257.774 156.605C255.761 156.814 254.809 155.646 254.241 154.011C253.97 153.229 253.097 152.608 253.636 151.505C253.734 151.305 252.504 150.494 251.934 149.918C251.319 149.296 250.828 148.168 250.16 148.067C248.991 147.89 247.796 147.501 246.569 147.674C246.283 147.715 245.867 147.783 245.712 147.632C245.303 147.233 245.387 146.266 244.438 146.507C243.82 146.665 243.453 145.534 242.748 146.214C242.724 146.237 242.354 145.977 242.218 145.795C241.546 144.898 240.659 144.46 239.545 144.444C238.961 144.436 236.739 143.789 236.654 143.498C236.342 142.422 235.887 142.491 235.268 143.229C234.878 143.694 234.451 143.548 234.299 143.112C233.848 141.815 232.815 141.188 231.783 140.419C230.997 139.833 230.492 138.765 230.079 137.817C229.696 136.938 228.291 136.667 228.719 135.293C228.926 134.631 228.3 134.428 227.699 134.418C227.158 134.409 226.584 134.465 226.09 134.3C225.877 134.229 225.632 133.582 225.737 133.348C226.201 132.313 227.781 131.989 227.577 130.497L227.591 130.484C228.746 132.453 230.606 133.606 232.608 134.431C233.284 134.71 233.993 134.814 234.552 135.371C235.04 135.856 235.441 136.283 234.746 136.889C235.506 137.105 235.871 138.238 236.198 138.26C237.521 138.346 238.424 139.003 239.309 139.82C241.558 138.927 241.76 141.8 243.394 142.04C243.297 142.677 243.233 143.857 243.843 143.613C244.923 143.179 245.314 143.735 245.457 144.342C245.676 145.278 246.305 145.111 246.905 145.254C247.607 145.421 248.284 145.699 248.97 145.933C249.656 146.168 250.326 146.479 251.03 146.629C252.352 146.911 253.278 147.633 253.771 148.874C254.326 150.275 254.994 151.583 256.096 152.658C256.303 152.86 256.338 153.475 256.186 153.758C255.921 154.255 255.887 154.389 256.495 154.573C257.385 154.843 258.211 155.316 259.091 155.627C259.456 155.756 259.946 155.581 260.276 155.748C260.571 155.898 260.725 156.327 260.941 156.633L260.919 156.607L260.917 156.606Z" fill="black"/>
<path d="M311.658 167.406C311.251 167.477 311.548 167.513 311.705 167.385C314.189 165.359 317.43 164.72 320.069 162.981C320.377 162.778 320.805 162.59 321.149 162.631C322.9 162.836 323.958 161.811 325.141 160.787C326.146 159.917 327.367 158.91 328.591 158.766C329.951 158.605 330.714 157.709 331.662 157.167C333.425 156.159 334.929 154.69 336.465 153.33C337.906 152.053 339.248 150.668 340.635 149.331C341.207 148.779 340.725 147.514 342.072 147.426C342.502 147.397 342.969 146.853 343.32 147.42C343.44 147.614 343.143 148.09 342.979 148.41C342.645 149.063 341.264 149.248 342.068 150.406C341.421 150.826 340.63 151.131 340.166 151.697C339.686 152.283 338.707 152.441 338.763 153.608C338.803 154.437 337.569 154.448 336.909 154.835C336.774 154.914 336.659 155.161 336.668 155.324C336.739 156.629 335.657 156.855 334.798 157.26C333.404 157.917 331.896 158.403 331.242 160C331.139 160.25 330.86 160.524 330.604 160.604C329.314 161.007 328.347 161.773 327.364 162.694C326.5 163.503 325.12 163.751 324.087 164.423C322.521 165.44 321.054 166.605 319.557 167.724C319.353 167.876 319.262 168.758 318.992 168.124C318.18 166.216 317.182 167.884 316.734 168.115C315.265 168.874 315.324 168.947 313.946 169.228C313.249 169.371 312.524 169.683 311.97 170.115C311.26 170.669 310.668 170.87 309.817 170.426C309.478 170.249 308.955 170.42 308.517 170.416C308.166 170.414 307.816 170.387 307.465 170.371C307.63 170.127 307.77 169.861 307.964 169.642C308.692 168.817 309.418 167.987 310.2 167.213C310.316 167.098 310.73 167.271 311.658 167.406V167.406Z" fill="black"/>
<path d="M29.1779 165.379C29.0249 165.358 28.0504 165.507 27.6088 165.091C26.9366 164.457 25.5374 165.237 25.352 163.72C25.2701 163.05 24.5501 162.467 24.157 161.822C23.9554 161.491 23.922 161.013 23.6565 160.779C23.3378 160.498 22.8524 160.405 22.4392 160.231C23.027 158.994 21.136 158.477 21.5987 157.17C21.874 156.392 21.5793 155.428 21.7712 154.601C21.8768 154.145 22.4438 153.785 22.829 153.408C24.1458 152.121 25.476 150.848 26.7975 149.566C27.2632 149.114 27.7702 148.693 28.1661 148.185C28.685 147.52 28.842 147.56 29.3091 146.855C30.106 146.157 31.0575 145.923 31.5756 146.581C31.6474 146.673 32.0926 146.998 32.1735 147.091C33.3563 148.461 32.3114 148.43 32.5888 149.174C33.002 150.282 31.1006 150.842 31.9877 151.968C32.0377 152.031 31.7732 152.507 31.669 152.502C30.5102 152.446 30.1509 153.216 29.7392 154.248C29.5164 154.806 28.8334 155.164 28.4381 155.674C27.8816 156.393 26.2043 156.495 27.0598 158.055C27.0667 158.068 26.574 158.34 26.3261 158.508C25.7627 158.889 26.0236 159.649 26.6387 160.05C27.7012 160.742 28.4184 162.144 29.5448 162.257C30.9109 162.395 31.0783 163.289 31.4714 164.044C31.9988 165.058 31.8695 165.371 30.7456 165.41C30.4211 165.421 30.096 165.399 29.1783 165.379H29.1779Z" fill="black"/>
<path d="M309.836 160.175C310.075 160.111 310.325 160.074 310.551 159.978C313.615 158.674 316.708 157.419 319.578 155.722C320.173 155.371 321.853 155.529 320.922 153.919C320.898 153.877 321.186 153.547 321.264 153.57C323.044 154.094 323.241 152.36 324.106 151.594C325.547 150.32 326.971 149.027 328.427 147.772C328.499 147.71 328.986 147.923 328.991 148.023C329.066 149.439 329.07 150.706 327.816 151.885C326.834 152.808 325.063 153.261 325.146 155.112C322.264 156.632 320.012 159.184 316.809 160.177C315.311 160.642 313.923 161.239 312.629 162.229C310.524 163.84 307.872 164.31 305.39 165.103C305.09 165.199 304.587 165.086 304.469 165.263C303.467 166.768 301.517 166.901 300.373 168.131C299.527 169.041 298.806 169.638 297.808 168.387C297.42 167.9 297.132 168.272 296.764 168.469C296.547 168.585 296.191 168.442 295.897 168.416C295.975 168.235 296.044 168.05 296.13 167.873C296.68 166.739 298.539 165.487 300.207 164.887C301.466 164.433 302.786 163.94 303.825 163.136C305.354 161.955 307.636 162.018 308.695 160.089C308.816 159.868 309.382 159.892 309.741 159.802C309.772 159.926 309.804 160.05 309.836 160.175Z" fill="black"/>
<path d="M311.038 140.729C312.647 140.641 313.812 140.555 314.979 140.532C315.225 140.527 315.522 140.704 315.716 140.883C316.193 141.324 316.554 141.933 317.093 142.249C317.545 142.513 317.333 143.586 318.174 143.289C318.339 143.23 318.792 144.124 319.22 144.423C320.106 145.043 319.242 145.731 319.394 146.3C319.575 146.972 320.611 147.783 320.444 148.115C319.772 149.449 319.707 151.146 318.342 152.092C317.563 152.632 316.756 153.138 315.921 153.584C315.605 153.752 314.967 153.878 314.844 153.726C314.617 153.443 314.484 152.868 314.62 152.546C315.393 150.713 315.272 148.785 315.378 146.875C315.434 145.888 315.088 145.167 314.168 144.845C312.681 144.324 311.876 143.992 309.518 144.022C308.471 144.034 308.494 143.723 308.104 143.066C307.534 142.108 308.319 141.912 308.674 141.703C309.207 141.39 309.933 141.392 310.139 140.994C310.441 140.412 311.044 140.729 311.038 140.729Z" fill="black"/>
<path d="M173.103 86.3201C173.501 86.2238 174.196 86.2115 174.252 86.0179C174.621 84.7179 174.927 83.3892 175.111 82.05C175.286 80.7727 175.145 79.4426 175.402 78.1886C175.677 76.8415 175.063 75.5933 175.28 74.2535C175.487 72.9801 175.231 71.6316 175.439 70.3586C175.637 69.1431 174.813 68.0774 175.351 66.7375C175.718 65.8209 175.051 64.5109 174.921 63.3683C174.777 62.1043 174.755 60.8266 174.608 59.5629C174.523 58.8267 175.517 58.0359 174.484 57.2996C174.4 57.2396 175.023 56.4161 175.043 55.9361C175.09 54.8057 176.257 55.2157 176.655 54.6228C176.911 55.0356 177.222 55.4258 177.406 55.8685C177.564 56.2461 177.756 56.7557 177.624 57.0833C177.011 58.6118 177.695 60.1256 177.57 61.6444C177.446 63.1567 177.473 64.6816 177.44 66.2011C177.406 67.8291 177.411 69.4589 177.338 71.0851C177.276 72.4634 177.215 73.8529 176.989 75.2096C176.779 76.4675 177.285 77.6514 177.163 78.8767C177.112 79.3984 177.001 79.9165 176.886 80.4292C176.518 82.0644 176.162 83.7032 175.745 85.3258C175.589 85.932 175.378 86.5791 174.999 87.0534C174.742 87.376 174.139 87.5916 173.706 87.569C172.922 87.528 173.142 86.8191 173.112 86.3114L173.103 86.3201Z" fill="black"/>
<path d="M264.277 302.148C264.991 301.06 265.056 301.061 265.716 302.156C265.473 302.536 265.23 302.916 264.986 303.295C264.75 302.913 264.514 302.53 264.277 302.148Z" fill="black"/>
<path d="M228.28 127.908C228.637 127.731 228.994 127.555 229.351 127.378C229.338 128.162 229.324 128.945 229.311 129.729L228.253 129.227C228.269 128.781 228.284 128.335 228.299 127.889L228.281 127.908L228.28 127.908Z" fill="black"/>
<path d="M171.628 155.012C171.739 155.971 172.472 157.261 171.607 158.534C172.242 160.429 170.351 161.41 169.973 162.957C169.833 163.529 169.193 164.018 168.539 163.241C166.967 164.405 165.569 162.44 164.032 162.99C163.62 162.21 161.874 162.001 163.008 160.537C163.164 160.336 163.16 159.787 162.998 159.599C162.266 158.754 162.605 157.66 162.641 156.851C162.693 155.692 163.486 154.531 164.1 153.449C164.32 153.061 164.922 152.723 165.381 152.676C166.104 152.602 166.857 152.765 167.589 152.883C168.04 152.955 167.991 152.92 169.591 152.125C170.407 151.72 171.391 151.561 172.314 151.489C173.452 151.4 174.099 152.548 173.6 153.66C173.552 153.768 173.093 153.819 172.921 153.723C171.717 153.051 171.705 153.885 171.628 155.012V155.012Z" fill="black"/>
<path d="M132.615 212.552C132.626 212.122 132.593 211.685 132.67 211.267C132.697 211.121 132.991 211.024 133.164 210.905C133.381 211.374 133.598 211.844 133.815 212.312C133.412 212.389 133.009 212.466 132.606 212.543L132.615 212.553L132.615 212.552Z" fill="black"/>
<path d="M161.526 20.3942C161.357 20.6346 161.117 21.3636 160.713 21.4693C159.824 21.7017 158.31 20.7212 158.255 20.0288C158.195 19.2797 158.282 18.5204 158.257 17.767C158.223 16.7196 158.445 15.697 157.849 14.6421C157.296 13.6641 157.751 12.5452 158.426 11.6864C158.682 11.3602 159.286 11.0688 159.675 11.1281C160.868 11.3102 159.717 11.8036 159.742 12.1607C159.749 12.2682 159.708 12.4492 159.754 12.4737C161.287 13.2861 160.843 14.7165 160.933 16.0182C161.027 17.3671 161.289 18.704 161.526 20.3946V20.3942Z" fill="black"/>
<path d="M214.562 191.467C214.477 191.501 214.413 191.611 214.358 191.697C214.245 191.873 214.144 192.057 214.038 192.237C214.218 192.318 214.409 192.487 214.575 192.465C215.201 192.381 215.82 192.235 216.442 192.113C216.394 191.917 216.409 191.645 216.285 191.543C216.06 191.359 215.751 191.277 215.485 191.156C215.145 191.267 214.848 191.352 214.563 191.466L214.562 191.467Z" fill="#FFE400"/>
<path d="M226.634 242.399L226.964 242.341C226.916 242.306 226.871 242.268 226.823 242.233C226.817 242.229 226.733 242.301 226.634 242.399Z" fill="#FFE400"/>
<path d="M140.388 205.303C140.574 205.371 140.759 205.439 141.171 205.59C141.265 205.108 141.375 204.665 141.42 204.217C141.428 204.129 141.182 204.015 141.053 203.913C140.831 204.376 140.61 204.84 140.388 205.303Z" fill="#FFE400"/>
<path d="M118.95 216.051C118.615 216.49 118.303 216.846 118.068 217.247C118.009 217.346 118.199 217.592 118.275 217.77C118.594 217.424 118.938 217.095 119.215 216.718C119.273 216.639 119.088 216.381 118.95 216.051Z" fill="#FFE400"/>
<path d="M318.116 199.88C317.194 198.118 317.113 198.011 317.834 196.335C318.167 195.563 318.479 194.726 317.758 194.317C316.657 193.692 317.132 192.661 317.063 191.965C316.912 190.45 316.861 189.129 315.326 188.256C314.937 188.035 314.93 187.144 314.747 186.561C313.801 187.419 313.498 186.37 313.021 185.949C312.453 185.446 312.006 184.796 311.404 184.347C310.466 183.646 309.193 183.442 308.471 182.403C305.671 182.028 303.589 180.129 301.199 178.901C300.368 178.474 299.803 178.072 298.876 178.601C298.011 179.096 297.034 179.163 296.212 178.416C296.039 178.259 295.883 177.762 295.946 177.714C296.78 177.066 297.617 176.397 298.548 175.92C298.75 175.817 299.293 176.584 299.744 176.708C300.168 176.824 300.739 176.736 301.142 176.533C302.368 175.918 303.476 174.966 304.76 174.605C305.773 174.32 306.467 174.1 306.963 173.084C307.277 172.439 308.081 172.032 308.665 171.519C307.852 171.321 307.047 171.053 306.223 170.954C305.777 170.901 305.245 171.04 304.843 171.259C303.746 171.858 302.75 172.079 301.526 171.432C300.478 170.877 299.329 170.968 298.168 171.574C296.311 172.543 294.295 172.626 292.218 172.314C290.939 172.121 289.612 172.119 288.317 172.197C285.765 172.349 285.585 172.393 283.015 171.463C281.935 171.072 280.917 170.503 279.826 170.154C279.39 170.015 278.487 170.105 278.388 170.34C277.688 171.997 276.847 171.505 275.955 170.608C275.159 169.81 274.606 169.605 274.157 170.948C273.978 171.484 273.574 171.793 272.686 171.403C271.372 170.826 269.697 170.242 268.438 170.596C267.131 170.964 266.064 172.376 265.031 173.463C264.358 174.171 263.857 173.901 263.163 173.639C262.415 173.356 261.196 172.839 260.884 173.143C259.759 174.24 258.483 174.077 257.181 174.121C256.87 174.131 256.345 174.154 256.288 174.308C255.694 175.902 254.362 175.233 253.285 175.361C251.412 175.583 249.477 175.617 247.697 176.158C246.772 176.439 246.39 176.297 245.777 175.777C245.232 175.315 244.29 173.339 244.114 176.04C244.096 176.328 243.246 176.809 242.818 176.772C241.786 176.684 240.886 176.793 240.09 177.476C238.918 176.533 238.488 177.7 237.709 178.187C236.874 178.708 236.217 178.012 236.169 176.78C236.156 176.435 235.898 176 236.032 175.769C236.327 175.26 236.304 174.916 235.709 175.001C234.379 175.191 233.74 174.384 233.397 173.383C233.093 172.498 232.553 172.382 231.764 172.202C230.699 171.959 229.569 171.588 228.716 170.943C227.744 170.207 225.99 169.315 224.28 169.266C223.778 169.251 222.192 170.908 222.397 171.265C222.474 171.398 222.772 171.408 222.971 171.465C223.269 171.551 223.716 171.532 223.846 171.727C224.881 173.274 226.126 174.284 228.135 173.746C228.28 173.707 228.49 173.787 228.63 173.875C229.788 174.601 230.879 175.47 232.109 176.038C233.072 176.484 233.594 177.08 233.956 178.039C234.41 179.239 234.25 179.808 232.999 180.049C232.62 180.122 231.409 180.484 232.236 179.226C231.709 179.132 231.151 178.879 230.66 178.973C229.141 179.265 228.058 181.302 226.15 180.089C225.508 181.498 223.967 180.213 223.283 180.968C222.407 181.934 221.362 181.769 220.325 181.893C220.089 183.324 218.654 182.896 217.852 183.457C217.539 183.675 217.039 183.662 216.622 183.677C216.466 183.682 216.301 183.466 216.14 183.352C216.324 183.255 216.498 183.112 216.694 183.07C217.453 182.907 217.526 182.425 217.141 181.914C216.783 181.439 216.259 180.66 215.633 181.363C215.194 181.856 215.125 181.895 214.383 181.862C213.081 181.804 213.31 180.491 212.956 180.457C211.62 180.331 210.569 179.559 209.385 179.243C208.261 178.943 206.93 179.4 205.693 179.552C204.969 179.641 204.254 179.816 203.528 179.879C203.401 179.889 203.145 179.544 203.123 179.345C203.09 179.048 203.166 178.716 203.278 178.431C204.53 175.231 206.083 172.159 206.835 168.749C207.137 167.376 208.317 166.212 208.367 164.665C209.568 164.747 208.692 163.595 208.906 163.557C210.23 163.322 209.413 162.652 209.361 162.049C209.321 161.575 209.608 161.061 209.798 160.585C210.028 160.011 210.229 159.486 211.005 159.276C211.264 159.207 211.272 158.153 211.368 157.544C211.485 156.807 211.804 156.945 212.14 157.369C213.347 158.891 215.247 159.965 216.001 161.646C216.838 163.511 219.058 163.473 219.785 165.184C219.815 165.254 220.11 165.275 220.249 165.227C220.919 164.996 221.966 164.896 222.155 164.446C222.482 163.667 221.639 163.261 220.94 162.874C220.439 162.597 220.068 162.005 219.757 161.482C219.228 160.595 218.576 159.831 218.292 158.717C218.102 157.972 216.715 157.711 216.475 156.393C216.3 155.43 215.146 154.669 214.51 153.76C212.947 151.533 212.963 151.52 212.597 149.207C212.472 148.42 213.505 147.999 213.006 146.883C212.475 145.694 213.906 144.179 213.003 142.756C212.932 142.644 213.113 142.367 213.189 142.172C213.747 140.728 214.339 139.296 214.846 137.834C214.951 137.531 214.813 136.841 214.669 136.805C213.935 136.622 213.877 136.426 214.315 135.796C215.204 134.514 215.442 133.092 214.924 131.572C214.849 131.349 214.86 131.031 214.965 130.823C215.553 129.65 214.79 129.625 213.962 129.511C213.42 129.436 213.006 130.573 212.391 129.607C211.988 128.975 211.484 128.796 210.894 129.53C210.66 129.821 210.197 130.042 209.816 130.083C207.823 130.296 205.751 130.173 203.845 130.682C201.804 131.227 200.819 129.948 199.732 128.897C199.011 128.199 198.697 127.09 198.166 126.185C197.683 125.363 196.573 124.386 196.758 123.797C197.277 122.144 195.218 122.693 195.255 121.624C195.325 119.546 193.031 118.639 192.773 116.609C192.654 115.672 191.727 114.782 191.036 113.983C188.56 111.125 188.556 111.139 187.377 106.702C187.285 106.355 186.755 106.105 186.399 105.851C185.751 105.39 185.886 106.064 185.671 106.33C184.749 107.467 184.691 108.397 186.164 109.081C186.301 111.42 188.805 112.659 188.919 115.008C190.493 115.732 190.203 117.769 191.632 118.711C193.001 119.613 192.95 121.574 193.83 122.773C195.104 124.507 195.615 126.592 196.89 128.292C197.449 129.036 197.81 129.957 198.122 130.847C198.331 131.441 198.272 131.885 197.362 131.426C197.101 131.295 196.425 132.266 195.881 132.35C195.142 132.464 194.334 132.265 193.577 132.103C191.977 131.761 190.351 130.978 188.98 132.635C188.916 132.712 188.652 132.656 188.492 132.617C187.986 132.496 187.478 132.377 186.985 132.214C186.49 132.05 185.971 131.615 185.538 131.697C184.976 131.804 184.602 132.438 183.848 131.887C182.966 131.241 183.391 132.71 182.997 132.587C182.54 132.444 182.218 131.88 181.76 131.723C181.525 131.642 180.908 131.986 180.833 132.244C180.531 133.297 179.822 133.486 178.9 133.366C177.76 133.219 176.518 133.601 175.514 132.698C175.428 132.622 174.953 132.81 174.956 132.829C175.034 133.337 175.566 133.947 174.387 133.924C173.245 133.9 172.029 133.537 170.942 134.377C170.836 134.459 170.107 133.735 169.668 133.384C170.58 132.762 169.668 132.174 169.482 131.779C168.722 130.164 168.807 128.306 167.788 126.73C167.401 126.13 168.153 124.891 168.069 123.972C167.993 123.135 167.46 122.346 167.188 121.516C167.091 121.222 167.031 120.699 167.188 120.573C168.288 119.689 167.545 118.84 167.189 118.011C166.744 116.975 166.702 115.844 166.103 114.796C165.632 113.972 165.345 112.812 165.736 111.639C166.224 110.177 166.556 108.621 165.026 107.415C164.891 107.309 165.009 106.843 165.057 106.552C165.351 104.767 165.119 102.46 164.54 100.913C164.397 100.529 164.434 100.079 164.384 99.6596C164.247 98.5087 164.732 97.2788 163.903 96.2005C163.795 96.0604 163.984 95.4352 164.129 95.3985C165.578 95.0299 165.029 94.3666 164.545 93.5348C164.186 92.9172 163.947 92.1558 163.901 91.4426C163.757 89.2038 163.43 86.9128 163.757 84.7293C163.997 83.1272 163.058 81.7643 163.429 80.2474C163.467 80.0954 163.308 79.7885 163.161 79.7159C162.248 79.2675 161.27 78.4724 160.398 78.568C159.651 78.6495 158.881 79.5977 158.791 80.7619C158.739 81.423 158.551 81.972 158.733 82.7212C159.126 84.3456 159.102 86.0663 159.395 87.7216C159.628 89.036 160.54 90.2917 159.384 91.6302C159.251 91.7843 159.653 92.3628 159.749 92.7587C160.338 95.2052 161.392 97.5652 161.067 100.186C161.006 100.679 161.248 101.21 161.358 101.721C161.643 103.05 162.229 104.4 162.133 105.699C162.051 106.813 162.078 107.872 162.159 108.968C162.204 109.577 161.941 110.206 161.854 110.831C161.819 111.088 161.808 111.391 161.911 111.617C162.965 113.954 162.479 116.437 162.695 118.857C162.829 120.362 162.452 122.03 163.564 123.4C163.795 123.685 163.917 124.477 163.766 124.585C162.64 125.392 163.991 126.551 163.29 127.384C162.434 128.399 164.096 129.413 163.592 130.01C162.599 131.188 163.376 131.704 163.978 132.468C164.516 133.153 164.384 133.83 163.8 134.497C163.038 135.368 162.537 134.596 161.869 134.36C160.823 133.991 159.649 133.372 158.6 133.799C155.254 135.164 151.756 135.647 148.209 135.973C147.912 136.001 147.498 136.084 147.365 136.288C147.114 136.672 147.292 137.373 146.386 136.796C146.027 136.567 145.209 135.523 144.704 136.512C144.047 137.801 143.677 136.184 142.934 136.521C139.14 138.243 134.999 137.424 131.013 137.807C129.907 137.914 129.257 136.985 129.93 136.461C131.229 135.449 130.656 134.081 130.238 133.464C129.137 131.832 129.629 129.649 128.135 128.231C126.566 126.742 126.985 124.485 126.105 122.721C126.06 122.629 126.108 122.483 126.054 122.403C125.579 121.704 125.588 121.16 126.326 120.573C128.088 119.172 126.991 116.151 129.38 115.068C129.328 114.974 129.279 114.876 129.221 114.784C128.449 113.545 129.534 112.61 129.857 111.614C130.395 109.954 131.532 108.466 131.927 106.79C132.152 105.833 132.254 104.935 132.878 104.137C133.266 103.642 133.578 103.081 133.866 102.519C133.962 102.333 133.876 102.054 133.873 101.818C133.667 101.851 133.415 101.818 133.263 101.925C131.223 103.364 130.107 105.64 129.781 107.815C129.394 110.4 127.839 111.78 126.224 113.305C125.593 113.902 124.337 114.116 124.6 115.235C124.981 116.861 122.796 116.095 122.836 117.364C122.852 117.829 122.204 118.412 122.337 118.755C122.549 119.299 122.732 119.606 122.2 120.058C120.077 121.86 118.614 124.272 116.596 126.176C116.482 126.283 116.353 126.579 116.386 126.608C116.658 126.844 116.967 127.037 117.265 127.242C116.891 127.436 116.363 127.535 116.174 127.843C115.631 128.725 115.2 129.681 114.775 130.63C114.564 131.1 114.529 131.651 114.299 132.107C113.83 133.034 113.282 133.922 112.767 134.825C114.029 136.084 111.23 136.03 111.981 137.24C112.146 137.507 111.803 138.356 111.454 138.628C110.292 139.535 110.326 140.908 110.095 142.083C109.824 143.466 109.477 144.719 108.698 145.914C108.075 146.868 107.461 147.957 107.307 149.052C107.146 150.193 105.258 150.145 105.835 151.566C105.077 151.479 104.309 151.275 103.562 151.335C102.314 151.434 101.079 151.695 99.8455 151.926C99.7852 151.937 99.7478 152.484 99.7755 152.49C101.079 152.831 100.6 153.415 100.05 154.093C99.3137 154.998 98.6235 155.943 97.9444 156.893C97.3627 157.707 96.5201 158.22 95.4523 158.044C95.0146 157.972 94.8821 157.697 94.5867 158.304C94.2518 158.992 94.2389 160.244 93.1829 160.134C92.4269 160.055 91.9282 161.163 91.1751 160.412C90.7339 160.901 90.3404 161.449 89.8363 161.861C89.4346 162.189 88.9154 162.499 88.4171 162.56C86.889 162.746 85.6084 163.208 84.9124 164.731C84.8082 164.959 84.2276 165.239 84.1374 165.165C82.832 164.095 82.8054 165.732 82.1702 166.05C81.5464 166.362 80.7351 166.994 80.2774 166.81C79.0378 166.313 78.6878 166.269 79.3838 167.654C79.4201 167.726 78.976 168.122 78.9724 168.119C77.6983 167.01 76.6053 169.076 75.3559 168.339C75.3297 168.323 75.1418 168.585 75.0272 168.716C73.821 170.091 73.8228 170.105 73.1132 170.215C72.6964 170.279 72.2717 170.292 71.8506 170.327C72.0672 170.737 72.2742 171.153 72.5027 171.556C72.995 172.424 72.853 172.769 71.9088 172.748C71.3285 172.735 70.602 173.065 70.2409 172.205C69.7777 171.101 69.3365 171.183 68.8428 172.237C68.7447 172.446 68.1001 172.611 67.8615 172.491C67.5076 172.313 68.7005 171.569 67.6607 171.449C67.0499 171.378 66.3923 171.5 65.7848 171.651C63.3296 172.261 61.9959 172.932 60.2637 174.195C59.9593 174.417 59.4595 174.47 59.06 174.444C57.8534 174.368 57.2412 174.959 57.1133 176.086C57.0414 176.719 56.8355 177.064 56.1317 177.028C55.8349 177.012 55.3947 177.075 55.2506 177.271C54.7196 177.993 54.2489 179.453 53.821 179.43C52.3478 179.35 52.373 180.587 51.8415 181.246C51.4111 181.778 51.3651 182.606 51.0568 183.259C50.9088 183.573 50.5362 184.02 50.2868 184.007C49.1773 183.946 49.0084 184.587 49.0792 185.429C49.1967 186.823 48.4885 186.304 47.8177 186.033C47.7304 185.998 47.5008 186.316 47.3369 186.471C47.9298 187.088 47.6057 187.567 47.2072 188.161C46.7437 188.852 46.6582 189.956 46.0582 190.356C45.3234 190.845 46.4261 192.115 45.0011 192.138C43.2865 192.166 45.4732 193.284 44.6418 193.75C44.161 194.02 43.8908 194.641 43.4403 194.994C43.0378 195.309 42.5082 195.457 42.0577 195.718C41.9732 195.767 41.9966 196.001 41.9703 196.151C43.7572 196.361 41.8291 197.417 42.3886 197.965C43.2904 198.849 41.8597 199.618 42.2003 200.597C42.4306 201.258 42.0519 202.148 43.156 202.318C43.1683 202.319 43.1489 202.737 43.1237 202.739C41.8978 202.852 42.2815 203.305 42.8797 203.823C43.2002 204.1 43.7978 204.62 43.774 204.651C42.9433 205.736 43.7845 206.401 44.5099 206.683C45.664 207.133 45.6741 208.12 45.8785 208.974C45.9744 209.376 45.2451 210.071 45.3996 210.345C45.8677 211.174 46.4994 210.202 46.9787 210.299C47.3373 210.371 47.7049 211.057 47.8184 211.529C47.9898 212.243 47.6797 213.474 48.0347 213.676C49.7626 214.659 49.1967 215.957 48.7318 217.217C48.509 217.819 48.625 217.998 49.1597 217.912C49.6584 217.832 50.3037 217.306 50.5833 217.475C51.461 218.004 50.5872 218.501 50.39 219.037C50.3044 219.27 50.6336 219.627 50.6091 219.913C50.4827 221.385 52.1973 221.945 52.2785 223.357C52.2964 223.669 53.1081 223.892 53.4728 224.24C53.937 224.684 54.7052 225.255 54.6599 225.701C54.5421 226.864 55.1612 227.208 56.0023 227.551C56.814 227.881 57.4334 228.239 57.3465 229.401C57.308 229.914 58.1739 230.974 58.9799 230.363C60.1979 229.44 60.1638 230.63 60.7775 231.009C63.5107 232.696 63.5653 232.601 64.377 234.641C64.4765 234.892 64.9853 235.05 65.3292 235.11C65.5721 235.153 66.06 234.83 66.093 234.884C67.0416 236.419 68.5565 236.607 70.1435 236.688C70.2754 236.695 70.5147 237.179 70.496 237.195C68.5137 238.866 70.8984 238.747 71.4133 239.263C71.9041 239.755 73.0417 239.848 73.2217 240.356C73.664 241.603 74.3082 241.382 75.2072 241.093C76.1288 240.797 76.9671 241.079 78.018 241.756C78.695 242.192 79.3277 242.387 79.8782 241.447C80.1624 240.962 81.0301 241.222 80.9931 241.776C80.9651 242.196 80.1904 242.7 81.2755 242.714C81.8411 242.722 82.4088 242.562 82.9757 242.477C83.0386 243.67 83.7978 242.778 84.1399 242.92C86.3759 243.846 88.8001 244.122 91.0167 245.015C91.7827 245.323 90.8992 245.413 90.6775 245.592C90.5743 245.676 90.5981 246.142 90.6502 246.158C91.5412 246.435 92.525 246.521 93.3238 246.954C94.0528 247.348 95.1199 245.495 95.4817 247.348C96.4149 247.095 97.1385 247.625 97.9394 247.944C98.3433 248.104 98.8686 247.975 99.3375 247.951C99.6378 247.935 99.9353 247.87 100.234 247.827C100.428 249.568 103.178 248.696 103.19 250.682C103.19 250.749 103.881 250.812 104.249 250.877L107.593 250.763C108.05 251.134 108.507 251.505 108.964 251.876L110.849 252.256C111.537 251.05 112.405 251.743 113.22 252.045C115.288 252.81 117.302 253.799 119.432 254.279C120.508 254.521 121.6 255.582 122.869 254.741C123.001 254.654 123.342 254.721 123.481 254.84C123.814 255.123 124.085 255.48 124.381 255.807C125.093 255.09 125.478 256.052 126.019 256.172C127.509 256.503 128.931 257.442 130.414 257.356C131.254 257.308 131.945 257.405 132.65 257.669C133.243 257.891 133.77 258.532 134.331 258.537C135.117 258.545 135.605 258.735 135.936 259.409C136.5 259.121 137.144 258.514 137.605 258.63C138.127 258.762 138.427 259.617 138.938 260.011C139.174 260.192 139.68 260.007 140.063 260.022C140.271 260.03 140.627 260.064 140.66 260.167C140.876 260.852 140.856 261.085 141.479 260.292C141.859 259.809 143.014 259.662 143.741 259.796C144.506 259.937 145.178 260.938 145.888 260.933C146.75 260.928 147.585 260.052 148.553 260.786C148.676 260.88 148.921 260.925 149.059 260.869C150.416 260.318 149.505 262.064 150.292 262.073C149.956 262.19 149.618 262.411 149.284 262.405C147.902 262.381 146.464 262.159 145.874 263.908C144.788 263.776 143.698 263.625 142.964 264.748C142.952 264.766 142.636 264.512 142.457 264.505C140.206 264.407 138.225 265.294 136.266 266.246C136.62 267.535 136.288 267.775 135.237 266.919C133.887 267.748 132.731 266.433 131.409 266.572C130.427 266.676 129.718 266.965 129.503 267.93C129.424 268.283 129.692 268.713 129.801 269.109C130.118 268.933 130.585 268.833 130.724 268.565C131.026 267.979 131.203 267.873 131.4 268.568C131.603 269.279 131.978 269.301 132.601 269.069C133.175 268.856 133.848 268.618 134.414 268.725C136.228 269.069 137.761 268.916 138.768 267.119C138.865 266.946 139.417 266.814 139.581 266.925C140.642 267.641 141.987 266.136 142.945 267.385C144.002 266.87 144.882 265.974 146.333 266.682C146.798 266.909 148.012 266.218 148.499 265.629C149.105 264.897 149.989 266.125 150.508 265.051C150.709 264.636 151.801 264.671 152.467 264.442C152.584 264.401 152.697 264.038 152.648 263.872C152.152 262.16 152.524 261.447 153.841 261.961C155.273 262.52 156.396 261.809 157.653 261.663C158.168 261.603 158.695 261.382 159.188 261.446C160.229 261.58 161.251 261.855 162.281 262.071C163.024 260.838 164.055 262.576 165.085 261.747C165.735 261.224 167.012 262.211 168.197 261.646C169.035 261.248 170.19 261.684 171.233 262.138C172.181 262.55 172.706 260.925 174.018 260.92C176.185 260.911 180.29 261.289 182.478 262.222C183.091 262.483 183.767 262.601 184.374 262.875C185.005 263.161 185.565 263.793 186.195 263.853C187.481 263.973 188.569 264.118 189.755 264.926C190.532 265.456 192.11 264.761 193.333 264.732C193.574 264.726 193.841 265.242 194.075 265.534C194.587 266.171 194.612 265.687 194.768 265.284C194.816 265.16 195.275 265.034 195.35 265.108C195.756 265.508 196.745 264.443 196.875 265.76C196.896 265.975 198.232 266.062 198.96 266.208L202.909 266.734C203.71 266.126 204.561 265.573 205.298 264.896C206.387 263.898 206.432 262.87 205.514 261.749C205.322 261.515 204.528 261.808 204.925 261.048C205.457 260.028 207.504 259.8 208.562 260.555C209.212 261.019 209.963 261.442 210.728 261.602C211.051 261.669 211.555 261.042 211.926 260.68C212.58 260.043 213.277 259.465 214.174 260.119C214.916 260.659 215.14 260.322 215.048 259.667C214.838 258.19 215.449 257.308 216.754 256.687C217.376 256.392 217.839 255.779 218.425 255.387C219.103 254.935 219.858 254.599 220.541 254.155C221.119 253.778 220.215 252.736 221.194 252.512C222.469 252.219 222.634 251.533 221.983 250.505C222.655 250.156 221.569 248.854 222.88 248.851C222.381 248.032 223.277 247.392 223.171 246.63C222.97 245.187 223.585 243.455 224.736 243.576C225.92 243.701 225.66 245.413 225.172 246.62C225.028 246.978 226.022 247.54 224.808 247.9C224.083 248.115 224.637 249.889 223.209 249.887C223.382 250.531 223.946 251.025 223.29 251.865C222.609 252.736 222.601 254.32 221.801 254.87C220.518 255.754 221.801 256.972 220.93 257.854C220.138 258.655 219.811 259.897 219.081 260.783C218.241 261.803 217.662 262.867 217.466 264.171C217.393 264.65 216.904 265.354 217.064 265.524C217.445 265.929 218.088 266.248 218.646 266.285C219.352 266.331 220.158 266.219 220.783 265.903C223.584 264.491 224.873 261.523 224.282 258.32C224.204 257.9 224.456 257.165 224.775 256.999C225.085 256.839 225.701 257.176 226.136 257.39C226.338 257.489 226.43 257.814 226.571 258.036C226.662 257.742 226.915 257.371 226.818 257.166C226.01 255.464 225.845 253.909 227.537 252.604C227.628 252.535 227.595 252.15 227.491 252.006C226.457 250.573 228.553 248.982 227.268 247.562C227.252 247.545 227.453 247.233 227.59 247.196C227.993 247.086 228.458 247.124 228.807 246.934C228.925 246.869 228.614 246.191 228.763 245.979C229.355 245.138 230.459 242.652 230.397 241.913C230.39 241.827 230.032 241.771 229.837 241.7C229.684 242.13 229.733 242.987 228.958 242.137C228.555 241.694 228.167 241.237 227.777 240.783C227.363 240.58 226.976 240.324 226.65 239.952C226.588 240.106 226.517 240.236 226.408 240.283C225.857 240.521 225.096 241.434 224.701 240.669C224.294 239.88 223.873 239.31 223.296 239.067C222.978 239.072 222.676 239.046 222.402 238.953C222.159 238.979 221.895 239.043 221.601 239.153C221.373 239.238 220.99 239.02 220.721 238.866C219.867 238.379 219.369 238.1 218.88 237.933C218.185 237.87 217.46 237.671 216.827 238.001C216.307 238.272 215.509 238.306 214.943 238.122C214.349 237.928 213.868 237.419 213.315 237.076C213.156 237.107 213.058 237.244 213.18 237.653C213.235 237.841 213.093 238.087 213.042 238.306C212.851 238.234 212.564 238.216 212.488 238.08C212.242 237.639 212.06 237.163 211.86 236.697C211.801 236.686 211.746 236.674 211.697 236.66C210.992 237.007 210.748 236.665 210.665 236.254C210.476 236.506 210.285 236.769 210.061 236.51C208.64 234.874 206.624 236.739 205.061 235.744C205.041 235.731 204.863 235.873 204.843 235.963C204.57 237.153 204.13 236.721 203.708 236.07C203.548 235.822 203.46 235.504 203.323 235.246C202.704 235.045 202.132 234.768 201.741 234.465C201.044 233.923 200.332 233.39 199.595 232.901C199.521 232.861 199.453 232.814 199.389 232.763C199.056 232.548 198.718 232.34 198.371 232.151C197.866 231.875 197.383 231.569 196.908 231.254C196.273 231.305 195.795 231.219 195.572 230.344C195.532 230.317 195.491 230.289 195.451 230.261C195.283 230.303 195.107 230.333 194.963 230.417C194.288 230.813 194.187 230.819 194.209 230.03C194.215 229.809 194.176 229.645 194.11 229.514C193.78 229.429 193.435 229.445 193.055 229.64C192.695 229.825 192.484 230.225 192.224 229.458C192.046 228.936 191.49 228.414 190.971 228.161C190.359 227.862 189.772 227.528 189.195 227.178C188.657 227.104 188.078 227.203 187.428 227.585C187.253 227.688 186.784 227.272 186.444 227.111C185.987 226.894 185.528 226.544 185.059 226.524C184.557 226.503 184.042 226.799 183.534 226.957C183.555 226.528 183.612 226.095 183.575 225.673C183.124 225.533 182.678 225.439 182.253 225.58C182.208 225.599 182.165 225.617 182.123 225.634C181.975 225.702 181.828 225.795 181.686 225.936C181.633 225.832 181.528 225.686 181.493 225.596C180.329 225.058 179.196 225.199 177.955 225.407C176.8 225.6 175.699 224.229 174.377 225.072C174.218 225.174 173.729 224.987 173.548 224.791C173.373 224.601 173.188 224.439 172.996 224.292C172.644 224.327 172.336 224.234 172.197 223.796C170.72 223.073 168.963 223.041 167.5 222.294C167.345 222.214 167.013 222.161 166.97 222.228C166.01 223.722 165.54 222.16 164.92 221.867C164.496 221.666 164.242 221.018 163.825 220.912C162.927 220.683 161.912 220.424 161.058 220.635C159.695 220.969 160.299 218.58 158.977 219.291C157.683 219.988 156.649 217.444 155.35 219.074C154.576 217.404 153.701 217.904 152.602 218.817C151.779 219.5 150.918 219.142 150.205 218.055C150.105 217.903 150.09 217.594 150.028 217.48C149.905 217.669 149.775 217.867 149.631 218.093C149.319 217.692 149.126 217.442 148.934 217.194C148.061 216.977 147.183 216.768 146.419 216.973C145.432 217.238 144.829 216.902 144.033 216.7C143.273 216.507 143.066 215.399 141.902 215.757C141.107 216 140.094 215.423 139.172 215.387C136.974 215.302 134.821 215.01 132.825 214.068C131.884 213.625 131.113 212.643 130.159 212.461C129.117 212.264 128.128 212.339 127.642 211.183C126.148 211.443 126.206 209.765 125.287 209.297C124.836 209.067 124.219 208.426 124.03 208.543C122.969 209.198 122.498 208.32 121.77 207.939C120.933 207.501 119.981 207.23 119.047 207.049C118.333 206.91 116.295 206.343 115.891 206.122C115.037 205.655 114.325 204.452 113.109 205.451C110.596 204.46 107.703 205.229 105.281 203.768C105.032 203.617 104.544 203.526 104.358 203.665C103.383 204.388 102.53 204.024 101.827 203.355C100.921 202.493 100.033 202.513 98.971 202.963C98.496 203.164 97.8625 203.003 97.3987 203.217C96.1655 203.789 96.4946 203.131 96.675 202.433C96.8209 201.869 97.1302 201.066 96.8809 200.736C96.7332 200.54 96.6445 200.358 96.5956 200.184C96.5263 200.255 96.4569 200.325 96.3843 200.388C96.1738 200.029 95.7523 199.645 95.7915 199.316C95.9255 198.184 96.2104 197.069 96.4817 195.958C96.4968 195.896 96.998 195.83 97.1238 195.939C97.685 196.424 97.8776 196.963 97.7037 197.545C97.8675 197.494 98.0738 197.558 98.3548 197.735C98.3659 197.663 98.3803 197.592 98.4076 197.528C98.4841 197.352 98.9027 197.138 98.9052 197.141C100.011 198.588 101.607 198.18 103.07 198.259L105.519 199.09C106.054 199.934 106.575 198.584 107.065 199.069C107.413 199.414 107.64 199.883 107.997 200.215C108.07 200.284 108.515 200.034 108.72 199.853C108.858 199.731 108.855 199.314 108.951 199.302C109.455 199.237 110.8 200.576 111.23 201.465C111.308 201.492 111.383 201.52 111.457 201.552C112.304 200.853 113.1 201.882 113.931 201.754C114.988 201.594 116.152 200.938 116.868 202.379C117.911 202.174 118.17 204.258 119.48 203.273C119.53 203.67 119.581 204.067 119.631 204.465C120.162 204.653 120.711 204.804 121.198 205.084C121.556 205.038 121.912 204.968 122.269 204.909C122.222 205.185 122.207 205.477 122.166 205.755C122.503 205.957 122.876 206.124 123.259 206.247C123.298 205.875 123.34 205.504 123.416 205.14C123.449 204.981 123.736 204.874 123.943 204.715C124.054 204.846 124.231 204.964 124.265 205.114C124.428 205.825 124.789 206.286 125.448 206.483C125.962 206.514 126.398 206.658 126.894 207.286C127.328 207.833 128.38 207.962 129.052 208.717C130.057 207.946 129.713 210.158 130.801 209.576C131.267 209.327 131.99 209.538 132.594 209.574C133.289 209.617 133.916 209.586 134.273 210.512C134.293 210.563 134.321 210.61 134.349 210.657C134.956 210.705 135.543 210.816 136.13 210.965C136.231 210.802 136.366 210.866 136.601 211.091C136.703 211.121 136.806 211.149 136.909 211.18C137.231 211.276 137.552 211.388 137.872 211.501C137.946 211.378 138.017 211.207 138.084 210.975C138.089 210.956 138.821 211.027 139.067 211.232C139.297 211.422 139.261 212.29 139.75 211.694C140.671 210.569 141.498 211.031 142.492 211.465C143.243 211.793 144.12 210.536 145.01 211.691C145.273 212.031 146.472 211.685 147.235 211.595C148.142 211.488 148.812 211.706 149.085 212.609C149.115 212.644 149.155 212.672 149.201 212.695C149.895 212.185 150.537 212.246 151.135 212.769C151.825 212.809 152.495 212.889 153.03 213.526C153.111 213.622 153.237 213.69 153.376 213.746C153.457 213.7 153.535 213.652 153.623 213.611C154.256 213.316 154.75 212.887 154.826 214.011C156.617 214.253 157.113 214.506 158.677 215.76C158.708 215.781 158.738 215.805 158.767 215.831L158.768 215.832C159.012 216.029 159.335 216.127 159.621 216.274C159.947 216.441 160.19 216.562 160.374 216.624C160.377 216.622 160.38 216.621 160.384 216.619C160.384 216.622 160.384 216.624 160.384 216.627C160.884 216.792 160.947 216.507 161.067 215.484C160.897 215.357 160.749 215.221 160.675 215.051C160.488 214.626 161.452 214.115 162.153 213.7C164.549 212.284 167.386 212.463 169.879 211.435C170.177 211.312 170.618 211.534 171.22 211.634C170.848 211.826 170.666 211.949 170.5 212.012C171.72 211.592 172.931 211.122 174.148 210.703C174.405 210.615 174.683 210.44 174.89 210.232C174.082 210.43 173.271 210.615 172.453 210.764C172.296 210.792 172.099 210.603 171.921 210.515C171.962 210.447 171.995 210.372 172.046 210.313C172.458 209.839 174.702 209.35 175.278 209.615C175.281 209.616 175.283 209.619 175.285 209.621C176.038 208.352 176.991 208.839 177.995 209.505C178.242 209.187 178.518 208.884 178.769 208.569C178.245 208.622 177.728 208.674 177.212 208.726C177.508 207.962 178.039 207.581 178.88 207.701C178.986 207.716 179.103 207.737 179.2 207.708C179.259 207.689 179.317 207.668 179.376 207.649C179.74 207.128 180.586 206.51 181.389 206.277C182.625 205.918 184.096 206.446 185.143 205.281C185.237 205.177 185.853 205.384 186.095 205.596C186.269 205.747 186.441 205.864 186.615 205.961C186.689 205.95 186.764 205.936 186.838 205.927C186.996 205.907 187.181 206.102 187.354 206.198C187.352 206.199 187.351 206.2 187.349 206.201C187.804 206.238 188.256 206.067 188.701 205.65C189.326 205.064 190.198 204.878 190.973 204.542C191.012 204.078 191.388 204.002 191.848 204.019C192.059 203.837 192.245 203.614 192.393 203.329C192.796 203.441 193.164 203.449 193.509 203.395C193.589 202.997 193.739 202.972 194.219 203.195C194.412 203.115 194.6 203.021 194.785 202.918C194.835 202.358 194.984 201.86 195.73 202.35C196.102 202.127 196.48 201.927 196.884 201.817C197.059 201.769 197.218 201.711 197.382 201.656C197.424 201.183 197.616 200.925 198.264 201.317C198.361 201.273 198.462 201.233 198.556 201.187C199.082 199.975 200.478 200.228 201.43 199.77C201.669 199.655 201.989 199.709 202.326 199.797C203.516 199.609 204.731 199.491 205.83 199.068C207.273 198.511 208.752 199.635 210.12 198.751C210.189 198.707 210.543 199.033 210.715 199.23C211.228 199.815 211.867 199.931 212.413 199.444C213.614 198.376 215.113 198.705 216.481 198.43C216.606 200.191 214.832 200.024 214.024 200.837C212.72 200.342 211.367 201.419 210.057 201.126C209.745 201.125 209.398 201.105 208.932 201.095C208.906 201.092 208.837 201.085 208.752 201.076C208.11 201.521 207.381 201.385 206.652 201.246C206.505 201.362 206.307 201.467 206.164 201.583C206.131 201.438 206.091 201.292 206.053 201.146C205.575 201.085 205.108 201.096 204.677 201.352C204.363 201.539 203.989 201.644 203.714 201.873C202.876 202.568 202.004 202.931 200.867 203.123C199.384 203.374 198.012 204.261 196.581 204.845C195.636 205.23 194.818 206.059 193.577 205.339C193.267 205.159 192.435 206.055 191.782 206.242C190.99 206.467 189.56 206.231 189.408 206.603C188.931 207.774 187.942 206.992 187.3 207.444C186.64 207.909 185.651 207.874 184.876 208.217C183.54 208.808 182.379 209.773 180.795 209.787C179.845 209.795 178.89 210.09 178.004 209.515C177.729 210.805 176.958 211.459 175.625 211.661C174.449 211.84 173.59 212.534 172.925 213.448C173.108 213.492 173.297 213.59 173.498 213.768C173.157 213.9 172.817 214.038 172.477 214.173C172.459 214.289 172.511 214.448 172.551 214.57C172.562 214.603 172.757 214.602 172.854 214.573C173.458 214.401 174.052 214.185 174.665 214.065C174.783 214.042 174.973 214.383 175.13 214.555C174.079 214.531 174.735 215.716 174.118 215.985C173.753 216.145 173.367 216.257 172.99 216.391C172.759 215.346 172.215 215.749 171.622 216.056C170.55 216.611 169.494 217.005 168.304 216.168C167.946 215.915 167.201 215.987 166.733 216.168C165.996 216.453 165.403 217.086 165.681 217.934C165.791 218.272 166.456 218.451 166.892 218.652C167.243 218.813 167.703 218.806 167.987 219.033C168.866 219.732 169.673 220.346 170.332 220.727C170.709 220.765 171.02 220.79 171.06 220.788C171.568 220.761 172.079 220.757 172.588 220.744C172.571 220.81 172.556 220.876 172.541 220.942C175.602 220.633 178.481 222.421 181.549 221.899C181.82 221.852 182.309 222.009 182.408 222.212C182.544 222.492 182.703 222.669 182.877 222.776C183.874 222.636 184.979 222.906 185.93 222.241C186.117 222.111 186.826 222.345 187.003 222.491C188.316 222.448 188.964 222.692 190.546 223.483C190.873 223.646 191.055 224.127 191.384 224.249C191.84 224.418 191.794 222.823 192.211 223.676C192.754 224.785 193.743 224.244 194.391 224.767C194.731 225.042 195.5 224.787 196.075 224.772C195.891 225.284 195.718 225.756 196.594 225.74C197.244 225.728 197.899 225.788 198.543 225.879C198.838 225.92 199.353 226.103 199.359 226.24C199.379 226.718 199.476 227.013 199.616 227.187C199.846 227.219 200.069 227.278 200.288 227.356C200.595 227.272 200.922 227.057 201.175 226.876C202.144 226.184 202.874 226.64 203.482 227.181C205.366 228.861 207.706 229.023 209.954 228.896C210.795 228.848 211.617 228.739 212.244 229.139C213.516 229.952 214.661 230.316 216.002 229.319C216.23 229.151 216.848 229.28 217.15 229.478C218.611 230.436 220.053 231.2 221.774 230.045C221.846 229.996 222.307 230.278 222.312 230.416C222.361 231.665 222.998 231.716 224.052 231.529C226.203 231.15 226.168 231.29 228.321 232.671C229.128 233.19 230.085 234.088 231.254 233.133C231.331 233.071 232.075 233.511 232.106 233.765C232.218 234.705 232.493 234.699 233.295 234.341C234.207 233.933 234.898 234.325 236.001 235.043C236.149 235.139 236.374 235.214 236.61 235.268C236.852 235.132 237.125 235.044 237.334 235.085C237.46 235.109 237.584 235.147 237.708 235.184C238.379 234.003 239.417 234.244 240.472 234.268C241.09 234.281 242.073 234.268 242.268 233.918C242.802 232.964 243.167 233.113 243.491 233.558L236.535 237.865C236.428 238.062 236.417 238.489 236.536 238.62C236.879 238.998 237.312 239.418 237.78 239.535C239.401 239.941 240.916 239.174 242.483 238.948C242.978 237.387 244.281 237.67 245.39 237.793C246.577 237.924 247.544 237.683 248.254 236.731C248.827 235.962 249.499 236.555 250.09 236.461C253.077 235.985 255.951 235.004 258.835 234.106C259.726 233.828 260.683 233.543 261.404 232.993C262.357 232.263 263.146 231.583 264.511 231.577C265.582 231.572 266.27 230.076 267.685 230.361C268.217 230.469 268.854 229.982 269.458 229.827C270.026 229.681 270.922 230.157 271.073 229.241C271.282 227.971 272.156 229.642 272.397 228.866C272.779 227.633 273.882 227.335 274.885 227.356C275.867 227.376 275.952 225.097 277.295 226.528C277.75 225.494 278.761 225.181 279.68 224.89C280.372 224.671 281.182 224.863 281.926 224.763C282.636 224.669 281.129 223.55 282.461 223.535C283.164 223.526 283.886 223.212 284.558 222.935C285.506 222.544 286.561 222.586 287.425 221.775C289.334 219.982 291.99 219.512 294.23 218.28C294.757 217.99 295.42 218.518 296.047 217.858C297.159 216.685 296.469 219.182 297.45 218.669C297.708 218.534 298.073 218.604 298.389 218.58C298.339 218.337 298.321 218.081 298.231 217.854C298.073 217.452 297.159 217.18 297.942 216.642C298.293 216.401 298.928 216.247 299.277 216.404C299.917 216.691 300.419 217.104 300.756 216.12C301.066 215.214 301.765 215.524 302.352 215.656C302.853 215.769 303.315 216.045 303.813 216.184C303.978 216.23 304.2 216.073 304.396 216.009C304.231 215.842 304.046 215.689 303.905 215.503C303.733 215.275 303.417 214.865 303.473 214.799C304.167 213.989 304.863 213.159 305.693 212.503C305.891 212.346 306.576 212.924 307.048 212.947C307.336 212.962 307.864 212.601 307.908 212.344C308.181 210.741 308.251 210.925 309.505 210.231C310.92 209.447 312.568 208.895 313.383 207.21C313.882 206.178 314.622 205.228 315.4 204.376C315.966 203.756 315.936 202.599 317.407 202.657C318.297 202.691 318.638 200.887 318.113 199.885L318.116 199.88ZM177.358 256.342C178.613 255.919 178.402 254.798 178.31 253.933C178.21 253.008 178.839 252.777 179.314 252.789C179.713 252.799 180.141 253.707 180.481 253.661C181.092 253.579 181.661 253.016 181.924 254.061C182.112 254.811 182.525 254.168 182.771 254.234C183.193 254.347 183.526 254.793 183.973 255.162C183.71 255.498 183.55 255.737 183.356 255.944C182.285 257.085 182.283 257.396 183.823 257.569C184.846 257.684 184.373 258.203 184.398 258.543C184.442 259.126 184.212 259.05 183.674 258.888C182.184 258.442 180.638 258.184 179.11 257.871C178.798 257.807 178.461 257.786 178.145 257.825C177.476 257.906 176.37 258.331 176.222 258.105C175.448 256.925 177.612 257.385 177.358 256.342ZM115.439 249.385C116.244 249.181 117.306 248.679 117.815 249.005C118.304 249.318 118.49 249.782 119.285 249.67C119.96 249.576 120.769 250.222 121.398 250.063C123.436 249.546 125.175 250.554 127.053 250.825C128.149 250.983 126.76 252.506 128.148 252.245C129.129 252.061 129.703 251.652 129.929 250.696C129.937 250.663 130.416 250.688 130.643 250.773C131.033 250.917 131.516 251.035 131.752 251.33C132.848 252.703 133.962 251.727 134.986 251.32C135.269 251.208 135.362 250.06 135.867 250.971C136.76 252.579 138.435 252.533 139.755 252.778C140.569 252.929 141.462 252.509 142.113 253.41C142.209 253.543 142.511 253.696 142.596 253.643C144.347 252.556 145.774 253.425 147.196 254.367C148.434 253.445 147.907 256.121 149.278 255.347C150.038 254.918 151.115 255.054 152.049 254.927C152.137 254.915 152.258 254.796 152.298 254.823C152.475 254.944 152.671 255.072 152.785 255.247C154.267 257.52 156.474 257.186 158.677 256.921C158.963 256.887 159.267 256.998 159.562 257.042C159.368 257.281 159.22 257.615 158.969 257.74C158.143 258.149 157.279 258.482 156.532 258.801C155.916 258.593 155.472 258.535 155.137 258.313C154.417 257.837 153.984 257.921 153.724 258.783C153.701 258.86 153.264 258.893 153.062 258.822C152.277 258.549 151.515 258.21 150.735 257.924C149.702 257.544 148.86 256.963 147.502 257.557C146.54 257.978 145.049 257.374 143.859 257.015C143.251 256.833 142.781 256.156 142.618 257.345C142.614 257.372 142.308 257.425 142.211 257.361C140.135 256.014 138.634 255.665 136.611 255.513C134.764 255.373 132.952 254.821 131.108 254.578C129.868 254.414 128.837 252.945 127.412 253.976C126.399 253.1 125.171 253.057 123.928 253.091C123.839 253.093 123.744 253.276 123.667 253.265C122.655 253.128 122.563 251.226 121.291 251.836C120.144 252.387 119.471 251.612 118.615 251.316C117.973 251.093 117.477 250.224 116.604 250.998C116.508 251.084 115.676 250.383 115.233 249.993C115.166 249.933 115.318 249.415 115.439 249.384L115.439 249.385ZM131.964 187.949C130.938 188.742 129.949 189.636 128.534 189.555C128.317 189.543 128.128 189.178 127.91 188.994C127.737 188.848 127.388 188.601 127.376 188.617C126.45 189.717 125.931 189.301 125.545 188.172C125.326 187.531 125.175 186.675 124.18 187.508C124.103 187.573 123.479 187.244 123.479 187.099C123.483 185.86 121.473 185.85 121.871 184.415C120.874 184.136 119.88 183.652 118.878 183.631C117.684 183.606 116.913 183.1 116.063 182.38C114.76 181.274 113.321 180.326 111.921 179.339C111.727 179.202 111.363 179.098 111.185 179.189C110.808 179.38 110.502 179.709 110.167 179.982C109.729 177.962 107.16 179.359 106.451 177.638C106.083 176.742 105.389 176.835 104.779 177.578C104.447 177.983 103.911 178.075 104.057 177.388C104.384 175.848 103.189 176.6 102.669 176.345L98.6993 175.552C97.4551 175.384 96.6682 173.581 95.1059 174.548C93.9569 173.85 92.6684 173.925 91.3975 173.816C90.6954 173.756 90.0268 173.374 89.3272 173.202C88.3143 172.951 86.9313 172.247 86.3439 172.655C85.3066 173.375 84.0415 171.925 83.3379 173.266L80.3647 173.061C79.8146 172.896 79.142 172.449 78.7399 172.624C77.9196 172.981 77.9149 172.259 77.5581 172.017C77.8341 171.718 78.1 171.17 78.3871 171.158C80.7236 171.067 82.2054 169.248 84.1126 168.476C85.7111 167.828 87.0887 167.089 88.4063 166.063C88.5583 165.944 88.9923 166.188 89.7311 166.371C89.4468 166.34 89.7551 166.384 89.7573 166.373C89.9157 165.508 90.3024 165.761 90.9822 165.834C91.4478 165.884 92.2275 164.96 92.5153 164.314C93.202 162.776 93.0873 164.093 93.3299 164.456C93.3787 164.529 93.8113 164.4 94.0327 164.293C94.4944 164.07 94.9482 163.567 95.3793 163.594C96.4939 163.663 97.1346 163.283 97.6236 162.279C97.7914 161.934 98.5014 161.75 98.9875 161.69C99.7162 161.602 99.8128 161.189 99.8606 160.602C99.8793 160.37 100.105 160.155 100.236 159.932C100.36 160.216 100.416 160.581 100.628 160.762C100.821 160.925 101.185 160.888 101.473 160.939C101.416 160.685 101.364 160.43 101.299 160.178C101.274 160.079 101.166 159.919 101.186 159.903C102.507 158.872 102.864 156.698 104.944 156.603C105.904 156.559 106.724 156.697 105.876 155.346C105.768 155.174 106.231 154.639 106.439 154.277C107.116 153.096 108.075 151.989 108.403 150.718C108.75 149.378 109.779 148.717 110.385 147.716C111.329 146.158 111.792 144.298 112.375 142.538C112.768 141.351 113.703 139.269 114.649 138.557C115.296 138.071 114.665 136.749 115.93 136.821C115.627 135.929 116.606 135.27 116.295 134.21C116.145 133.699 117.722 132.858 117.927 132.021C118.158 131.081 118.817 130.595 119.209 129.871C119.651 129.054 119.718 128.012 120.229 127.26C121.062 126.034 122.109 124.951 123.113 123.851C123.2 123.756 123.681 123.932 123.904 124.089C124.021 124.171 124.012 124.487 123.998 124.693C123.888 126.407 124.185 128.063 124.529 129.737C124.695 130.544 125.36 131.387 124.581 132.364C124.258 132.769 124.443 133.74 125.469 133.032C125.577 133.404 125.894 133.913 125.756 134.124C125.16 135.034 125.529 135.377 126.296 135.953C126.777 136.314 126.892 137.276 126.996 137.994C127.105 138.751 127.063 139.439 125.874 139.435C124.739 139.431 123.591 139.72 122.471 139.977C120.937 140.327 120.006 142.704 120.641 144.46C120.996 145.438 121.321 146.428 121.639 147.418C121.75 147.763 121.989 148.269 121.846 148.458C121.065 149.495 121.889 150.255 122.165 151.128C122.604 152.517 123.055 153.913 123.32 155.34C123.423 155.892 123.058 156.543 122.862 157.135C122.572 158.011 122.596 158.367 123.622 157.789C124.29 157.413 124.833 158.009 124.505 158.481C123.641 159.72 123.927 160.581 124.838 161.614C125.281 162.116 125.647 163.031 125.508 163.636C125.102 165.408 125.771 166.563 127.142 167.507C127.274 167.598 127.477 167.834 127.45 167.876C125.975 170.188 129.283 171.93 128.195 174.182C128.814 174.46 130.199 174.353 129.395 175.524C128.6 176.683 129.755 176.934 129.931 177.616C130.088 178.223 130.08 178.898 130.017 179.531C129.86 181.119 130.302 182.516 131.406 183.62C132.147 184.362 132.253 184.999 132.001 186.025C131.876 186.531 132.833 187.274 131.961 187.947L131.964 187.949ZM199.59 183.245C198.95 184.419 198.184 185.635 197.159 186.462C196.064 187.347 194.615 187.441 193.204 186.871C192.914 186.754 192.503 186.919 192.151 186.974C191.123 187.134 190.118 187.07 189.154 187.851C188.669 188.245 187.309 187.409 186.603 187.718C185.474 188.213 184.797 188.225 184.263 187.078C183.705 187.692 182.69 186.628 182.216 187.665C181.765 188.651 180.787 188.573 179.96 188.508C178.101 188.361 176.379 188.992 174.648 189.428C173.952 189.604 173.597 189.738 173.089 189.18C172.259 188.266 171.401 188.453 170.566 189.255C169.576 190.205 168.799 190.294 168.112 188.828C167.858 188.285 167.4 188.67 166.948 189.148C165.888 190.268 164.386 190.321 163.076 189.57C162.932 189.488 162.806 189.376 162.672 189.278C162.114 190.425 161.554 190.901 160.993 189.28C160.812 189.522 160.505 189.749 160.476 190.007C160.403 190.647 160.167 191.019 159.484 190.95C158.942 190.896 158.405 190.804 157.865 190.73C157.782 191.428 157.231 191.36 156.734 191.563C155.551 192.047 154.623 192.286 154.114 190.739C154.037 190.504 153.642 190.266 153.364 190.224C152.368 190.072 152.435 192.283 151.178 191.354C150.235 190.657 149.146 191.203 149.014 191.569C148.425 193.195 147.532 191.848 146.842 191.915C145.894 192.006 145.891 189.767 144.717 190.709C143.749 191.486 143.075 190.229 142.133 190.829C141.519 191.221 140.383 190.749 139.482 190.751C138.863 190.752 138.192 191.011 138.09 190.049C137.805 190.349 137.521 190.65 137.237 190.95C137.033 190.592 136.905 190.142 136.61 189.892C135.406 188.874 135.338 187.059 133.953 186.187C134.75 184.686 133.6 183.163 134.001 181.655C134.092 181.313 134.327 180.84 134.189 180.631C131.875 177.14 131.993 172.855 130.387 169.14C130.604 166.835 129.987 164.698 128.701 162.852C127.982 161.819 129.557 160.997 128.575 159.986C127.968 159.363 127.279 158.045 127.552 157.501C128.169 156.27 127.79 155.849 126.793 155.387C126.622 155.308 126.178 150.507 126.262 150.137C126.324 149.866 126.631 149.495 126.543 149.371C126.048 148.671 125.352 148.095 124.955 147.354C124.684 146.846 125.935 146.118 124.837 145.504C123.953 145.011 125.365 143.597 123.994 143.224C123.951 143.212 123.94 142.8 123.987 142.783C125.138 142.384 126.289 141.96 127.475 141.7C127.625 141.667 128.18 142.519 128.181 142.961C128.182 143.081 128.182 143.199 128.183 143.317C128.196 143.314 128.207 143.307 128.221 143.305C129.013 143.173 129.807 143.055 130.604 142.96C130.25 141.401 130.557 141.32 132.75 141.547C133.736 141.649 133.075 139.825 134.287 140.631C134.762 140.947 135.616 141.088 136.121 140.879C137.154 140.453 138.07 139.988 139.044 140.909C139.921 140.105 140.681 140.414 141.67 140.874C142.267 141.151 143.267 140.707 144.037 140.442C145.995 139.767 148.323 140.615 150.046 138.863C150.546 138.355 154.111 138.656 154.998 139.014C155.166 139.082 155.479 139.211 155.489 139.191C156.144 137.9 157.289 138.871 158.165 138.617C158.927 138.396 159.696 138.355 160.52 138.61C160.79 138.694 161.288 137.722 161.716 137.691C162.282 137.648 162.867 138.128 163.471 138.243C163.859 138.317 164.383 138.264 164.692 138.048C165.631 137.39 165.372 138.341 165.619 138.632C165.64 138.657 166.062 138.467 166.123 138.309C166.398 137.605 166.55 137.698 166.779 138.333C166.843 138.513 167.243 138.767 167.299 138.726C168.591 137.785 170.302 138.333 171.533 137.665C172.771 136.994 173.069 138.443 173.606 138.259C174.269 138.032 174.915 136.604 175.233 136.709C177.264 137.378 179.042 136.202 180.92 136.241C181.409 136.251 181.769 136.462 182.179 136.044C182.375 135.845 182.882 135.603 182.893 135.619C183.982 137.244 184.995 135.776 186.089 135.678C187.875 135.518 189.679 134.488 191.552 135.541C192.012 135.8 192.878 135.808 192.966 134.799C192.993 134.493 193.126 134.197 193.21 133.896C193.336 134.227 193.485 134.551 193.58 134.89C193.695 135.3 193.872 135.873 194.197 135.11C194.794 133.709 195.941 134.423 196.719 134.488C197.94 134.59 198.919 135.848 200.411 135.275C200.761 135.141 200.588 136.648 201.583 136.418C202.29 136.253 203.325 136.198 203.597 135.734C204.127 134.826 204.538 134.78 205.411 135.129C205.655 135.227 206.154 134.484 206.606 134.322C207.029 134.171 207.546 134.304 208.018 134.265C208.652 134.213 209.283 134.043 209.912 134.056C210.521 134.07 211.591 134.14 211.649 134.38C211.845 135.199 211.925 136.201 211.619 136.958C210.409 139.951 210.35 139.926 210.344 142.462C210.344 142.783 210.424 143.209 210.257 143.409C208.531 145.47 209.136 148.315 207.817 150.545C207.397 151.256 207.688 152.399 207.701 153.344C207.704 153.521 208.082 153.785 208.039 153.857C207.592 154.584 206.66 155.021 207.372 156.25C207.705 156.825 207.188 157.871 207.113 158.709C207.037 159.563 207.03 160.423 206.993 161.281C205.417 161.162 207.217 162.863 206.077 162.979C206.967 164.681 206.182 165.944 205.019 167.134C204.811 167.347 204.61 167.7 204.626 167.975C204.672 168.741 203.846 169.393 204.357 170.199C203.012 170.189 203.76 171.487 203.224 172.058C202.694 172.622 202.513 173.518 202.196 174.276C201.391 176.196 200.618 178.131 199.772 180.033C199.639 180.334 199.155 180.463 198.914 180.741C198.809 180.862 198.906 181.158 198.912 181.375C201.4 181.121 199.716 183.018 199.592 183.244L199.59 183.245ZM204.495 184.905C204.409 186.637 202.749 186.03 201.907 186.639C201.677 186.805 201.412 186.921 201.163 187.061C201.159 186.774 201.096 186.472 201.164 186.203C201.289 185.708 201.465 185.222 201.675 184.756C201.761 184.565 201.988 184.437 202.151 184.28L205.231 183.531C205.36 183.805 205.488 184.08 205.535 184.181C205.615 185.405 205.13 185.306 204.495 184.904V184.905ZM268.066 182.085C267.382 182.406 266.698 182.853 265.954 183.032C265.662 183.216 265.373 183.408 265.096 183.614C264.023 184.409 263.555 183.846 263.165 183.08C262.708 183.773 262.118 184.037 261.469 184.12C261.315 184.437 261.182 184.769 260.93 184.916C260.036 185.436 260.504 184.035 260.103 184.149C259.319 184.371 258.608 184.838 257.841 185.138C257.712 185.189 257.275 184.809 257.281 184.797C257.329 184.712 257.376 184.626 257.423 184.539C257.227 184.464 256.974 184.308 256.702 184.124C256.612 184.261 256.517 184.392 256.409 184.509C256.176 184.762 255.816 184.899 255.512 185.087C255.392 184.878 255.271 184.669 255.151 184.46C255.095 184.546 255.035 184.625 254.96 184.687C254.809 184.813 254.336 184.992 253.721 185.184C253.677 185.724 253.403 185.52 253.157 185.353C252.793 185.456 252.404 185.56 252.01 185.658C251.562 185.926 251.128 186.227 250.677 186.493C249.949 186.922 248.524 186.908 247.864 186.499C247.366 186.753 246.92 187.059 246.516 186.919C246.402 186.88 246.297 186.854 246.193 186.831C245.786 187.126 245.287 187.535 245.185 187.453C244.946 187.26 244.724 187.175 244.51 187.155C244.317 187.271 244.122 187.403 243.909 187.542C243.708 187.672 243.419 187.651 243.101 187.592C243.045 187.612 242.99 187.631 242.934 187.646C242.543 187.751 242.173 188.038 241.794 188.038C241.597 188.038 241.356 187.842 241.187 187.633C240.54 187.993 239.954 188.61 238.984 188.195C238.798 188.538 238.54 188.853 238.316 189.182C238.19 188.155 237.716 188.239 237.212 188.426C236.748 188.845 236.296 189.39 235.693 189.503C235.561 189.528 235.422 189.552 235.281 189.576C235.121 189.84 234.907 190.003 234.453 189.731C233.763 189.879 233.115 190.095 232.799 190.522C231.96 191.657 230.824 191.52 229.828 191.967C229.59 192.074 229.358 192.193 229.127 192.313C229.071 192.355 229.013 192.383 228.955 192.399C228.126 192.841 227.327 193.347 226.504 193.804C226.417 193.853 226.272 193.803 226.19 193.856C225.774 194.126 225.335 193.886 224.88 193.736C224.874 193.759 224.873 193.784 224.865 193.808C224.818 193.949 224.135 193.929 223.718 193.892C223.644 193.956 223.57 194.029 223.496 194.123C222.886 194.898 221.737 195.378 220.735 195.675C219.808 195.95 220.372 197.736 218.931 197.246C218.68 198.804 217.51 198.44 216.502 198.416C217.091 197.675 217.823 197.005 218.227 196.174C218.63 195.346 219.299 194.974 220.005 194.675C219.952 194.642 219.898 194.61 219.844 194.582C219.974 194.416 220.072 194.175 220.242 194.099C220.614 193.934 221.005 193.813 221.394 193.688C221.635 193.285 221.882 192.866 222.567 192.822C222.819 192.651 222.934 192.41 222.542 191.911C222.897 191.973 223.35 191.918 223.59 192.118C223.62 192.143 223.641 192.161 223.668 192.184C224.102 191.656 224.585 190.986 225.387 190.952C225.421 190.951 226.183 190.693 227.005 190.41C227.054 190.275 227.149 190.145 227.214 190.011C227.27 190.099 227.323 190.191 227.377 190.282C228.223 189.99 229.029 189.709 229.077 189.687C229.831 189.349 230.57 188.977 231.332 188.662C231.704 188.509 232.079 188.364 232.455 188.218C232.456 188.214 232.458 188.21 232.46 188.206C232.464 188.198 232.489 188.195 232.517 188.194C233.155 187.946 233.795 187.703 234.435 187.456C235.837 188.765 236.384 186.675 237.5 186.674C238.39 186.673 239.43 185.999 240.135 186.285C241.388 186.793 241.267 185.06 242.361 185.303C243.129 185.473 244.051 184.98 244.898 184.76C246.855 184.252 248.843 183.835 250.752 183.185C252.398 182.624 253.934 182.454 255.457 183.336C255.493 183.319 255.527 183.296 255.564 183.281C255.589 183.27 255.617 183.261 255.643 183.251C255.63 182.942 255.584 182.572 255.707 182.504C256.795 181.892 257.906 181.299 259.066 180.846C259.838 180.544 260.767 181.643 261.622 180.471C261.927 180.052 263.123 180.324 263.898 180.197C264.726 180.061 265.624 179.516 266.338 179.711C267.371 179.994 267.285 179.518 267.453 178.88C267.514 178.649 268.232 178.325 268.328 178.409C269.676 179.592 269.586 181.374 268.066 182.086L268.066 182.085Z" fill="black"/>
</svg>
